<?xml version="1.0" encoding="utf-8"?>
<!-- Generator: Adobe Illustrator 17.0.0, SVG Export Plug-In . SVG Version: 6.00 Build 0)  -->
<!DOCTYPE svg PUBLIC "-//W3C//DTD SVG 1.1//EN" "http://www.w3.org/Graphics/SVG/1.1/DTD/svg11.dtd">
<svg version="1.1" id="Calque_1" xmlns="http://www.w3.org/2000/svg" xmlns:xlink="http://www.w3.org/1999/xlink" x="0px" y="0px"
	 width="25px" height="25px" viewBox="11.5 11.5 25 25" enable-background="new 11.5 11.5 25 25" xml:space="preserve">
<g>
	
		<rect x="16.897" y="19.744" fill="none" stroke="#FFFFFF" stroke-linecap="round" stroke-linejoin="round" stroke-miterlimit="10" width="11.475" height="11.348"/>
	
		<line fill="none" stroke="#FFFFFF" stroke-linecap="round" stroke-linejoin="round" stroke-miterlimit="10" x1="16.897" y1="21.734" x2="28.372" y2="21.734"/>
	<g>
		<path fill="none" stroke="#FFFFFF" stroke-linecap="round" stroke-linejoin="round" stroke-miterlimit="10" d="M20.295,27.855
			c0.199,0.472,0.666,0.803,1.21,0.803c0.725,0,1.313-0.588,1.313-1.313c0-0.725-0.588-1.313-1.313-1.313
			c0.789-0.934,1.313-1.565,1.313-1.565c-1.155,0-2.298,0-2.298,0"/>
		<polyline fill="none" stroke="#FFFFFF" stroke-linecap="round" stroke-linejoin="round" stroke-miterlimit="10" points="
			24.974,28.658 24.974,24.465 24.344,24.465 		"/>
	</g>
	<polyline fill="none" stroke="#FFFFFF" stroke-linecap="round" stroke-linejoin="round" stroke-miterlimit="10" points="
		18.591,17.724 18.591,16.908 31.103,16.908 31.103,26.561 30.447,26.561 	"/>
</g>
</svg>
