<?xml version="1.0" encoding="utf-8"?>
<!-- Generator: Adobe Illustrator 17.0.0, SVG Export Plug-In . SVG Version: 6.00 Build 0)  -->
<!DOCTYPE svg PUBLIC "-//W3C//DTD SVG 1.1//EN" "http://www.w3.org/Graphics/SVG/1.1/DTD/svg11.dtd">
<svg version="1.1" id="Calque_1" xmlns="http://www.w3.org/2000/svg" xmlns:xlink="http://www.w3.org/1999/xlink" x="0px" y="0px"
	 width="30px" height="30px" viewBox="0 0 30 30" enable-background="new 0 0 30 30" xml:space="preserve">
<g>
	
		<polyline fill="none" stroke="#1E1E1E" stroke-width="2" stroke-linecap="round" stroke-linejoin="round" stroke-miterlimit="10" points="
		3.973,7.277 7.11,7.277 9.351,18.034 22.441,18.034 26.027,9.19 13.609,9.19 	"/>
	<circle fill="#1E1E1E" stroke="#1E1E1E" stroke-miterlimit="10" cx="21.471" cy="21.525" r="1.198"/>
	<circle fill="#1E1E1E" stroke="#1E1E1E" stroke-miterlimit="10" cx="10.063" cy="21.525" r="1.198"/>
</g>
<g>
	
		<circle fill="none" stroke="#FFFFFF" stroke-width="2" stroke-linecap="round" stroke-linejoin="round" stroke-miterlimit="10" cx="-73.043" cy="56.738" r="5.332"/>
	
		<line fill="none" stroke="#FFFFFF" stroke-width="2" stroke-linecap="round" stroke-linejoin="round" stroke-miterlimit="10" x1="-69.273" y1="60.508" x2="-64.289" y2="65.492"/>
</g>
<g>
	<g>
		<defs>
			<path id="SVGID_1_" d="M53,59.012C53,60.11,52.11,61,51.012,61H30.988C29.89,61,29,60.11,29,59.012V45.988
				C29,44.89,29.89,44,30.988,44h20.024C52.11,44,53,44.89,53,45.988V59.012z"/>
		</defs>
		<clipPath id="SVGID_2_">
			<use xlink:href="#SVGID_1_"  overflow="visible"/>
		</clipPath>
		<g clip-path="url(#SVGID_2_)">
			<rect x="29" y="44" fill="#009FE3" width="8" height="17"/>
			<rect x="37" y="44" fill="#FFFFFF" width="8" height="17"/>
			<rect x="45" y="44" fill="#E7363C" width="8" height="17"/>
		</g>
	</g>
</g>
</svg>
