<?xml version="1.0" encoding="utf-8"?>
<!-- Generator: Adobe Illustrator 17.0.0, SVG Export Plug-In . SVG Version: 6.00 Build 0)  -->
<!DOCTYPE svg PUBLIC "-//W3C//DTD SVG 1.1//EN" "http://www.w3.org/Graphics/SVG/1.1/DTD/svg11.dtd">
<svg version="1.1" id="Calque_1" xmlns="http://www.w3.org/2000/svg" xmlns:xlink="http://www.w3.org/1999/xlink" x="0px" y="0px"
	 width="30px" height="60px" viewBox="0 -15 30 60" enable-background="new 0 -15 30 60" xml:space="preserve">
<g>
	
		<polyline fill="none" stroke="#FFFFFF" stroke-width="2" stroke-linecap="round" stroke-linejoin="round" stroke-miterlimit="10" points="
		3.973,-7.723 7.11,-7.723 9.351,3.034 22.441,3.034 26.027,-5.81 13.609,-5.81 	"/>
	<circle fill="#FFFFFF" stroke="#FFFFFF" stroke-miterlimit="10" cx="21.471" cy="6.525" r="1.198"/>
	<circle fill="#FFFFFF" stroke="#FFFFFF" stroke-miterlimit="10" cx="10.063" cy="6.525" r="1.198"/>
</g>
<g>
	
		<polyline fill="none" stroke="#1E1E1E" stroke-width="2" stroke-linecap="round" stroke-linejoin="round" stroke-miterlimit="10" points="
		3.973,22.277 7.11,22.277 9.351,33.034 22.441,33.034 26.027,24.19 13.609,24.19 	"/>
	<circle fill="#1E1E1E" stroke="#1E1E1E" stroke-miterlimit="10" cx="21.471" cy="36.525" r="1.198"/>
	<circle fill="#1E1E1E" stroke="#1E1E1E" stroke-miterlimit="10" cx="10.063" cy="36.525" r="1.198"/>
</g>
<g>
	
		<circle fill="none" stroke="#FFFFFF" stroke-width="2" stroke-linecap="round" stroke-linejoin="round" stroke-miterlimit="10" cx="119.454" cy="67.484" r="5.332"/>
	
		<line fill="none" stroke="#FFFFFF" stroke-width="2" stroke-linecap="round" stroke-linejoin="round" stroke-miterlimit="10" x1="123.224" y1="71.254" x2="128.208" y2="76.238"/>
</g>
<g>
	<g>
		<defs>
			<path id="SVGID_1_" d="M245.497,69.758c0,1.098-0.89,1.988-1.988,1.988h-20.024c-1.098,0-1.988-0.89-1.988-1.988V56.734
				c0-1.098,0.89-1.988,1.988-1.988h20.024c1.098,0,1.988,0.89,1.988,1.988V69.758z"/>
		</defs>
		<clipPath id="SVGID_2_">
			<use xlink:href="#SVGID_1_"  overflow="visible"/>
		</clipPath>
		<g clip-path="url(#SVGID_2_)">
			<rect x="221.497" y="54.746" fill="#009FE3" width="8" height="17"/>
			<rect x="229.497" y="54.746" fill="#FFFFFF" width="8" height="17"/>
			<rect x="237.497" y="54.746" fill="#E7363C" width="8" height="17"/>
		</g>
	</g>
</g>
</svg>
