<?xml version="1.0" encoding="utf-8"?>
<!-- Generator: Adobe Illustrator 17.0.0, SVG Export Plug-In . SVG Version: 6.00 Build 0)  -->
<!DOCTYPE svg PUBLIC "-//W3C//DTD SVG 1.1//EN" "http://www.w3.org/Graphics/SVG/1.1/DTD/svg11.dtd">
<svg version="1.1" id="Calque_1" xmlns="http://www.w3.org/2000/svg" xmlns:xlink="http://www.w3.org/1999/xlink" x="0px" y="0px"
	 width="30px" height="30px" viewBox="0 0 30 30" enable-background="new 0 0 30 30" xml:space="preserve">
<g>
	<path fill="#1E1E1E" d="M15.181,15.689l-0.632-0.491c-0.192-0.16-0.456-0.37-0.456-0.756c0-0.387,0.263-0.633,0.492-0.861
		c0.736-0.579,1.472-1.196,1.472-2.496c0-1.336-0.841-2.039-1.244-2.373h1.087l1.141-0.717h-3.455c-0.948,0-2.314,0.224-3.315,1.05
		c-0.754,0.65-1.122,1.547-1.122,2.355c0,1.371,1.052,2.76,2.911,2.76c0.175,0,0.367-0.017,0.561-0.035
		c-0.087,0.211-0.175,0.387-0.175,0.685c0,0.544,0.28,0.878,0.526,1.194c-0.79,0.054-2.264,0.142-3.35,0.81
		c-1.035,0.615-1.35,1.511-1.35,2.143c0,1.301,1.227,2.513,3.77,2.513c3.016,0,4.613-1.669,4.613-3.321
		C16.654,16.937,15.953,16.339,15.181,15.689z M12.884,13.668c-1.509,0-2.192-1.95-2.192-3.127c0-0.458,0.087-0.931,0.385-1.301
		c0.281-0.352,0.771-0.58,1.229-0.58c1.454,0,2.209,1.968,2.209,3.234c0,0.317-0.035,0.878-0.438,1.283
		C13.794,13.459,13.322,13.668,12.884,13.668z M12.901,20.735c-1.876,0-3.086-0.897-3.086-2.145c0-1.248,1.122-1.67,1.508-1.809
		c0.736-0.248,1.683-0.282,1.841-0.282c0.175,0,0.263,0,0.403,0.018c1.334,0.949,1.913,1.422,1.913,2.321
		C15.48,19.925,14.585,20.735,12.901,20.735z"/>
	<polygon fill="#1E1E1E" points="19.609,13.641 19.609,11.884 18.742,11.884 18.742,13.641 16.987,13.641 16.987,14.519 
		18.742,14.519 18.742,16.287 19.609,16.287 19.609,14.519 21.372,14.519 21.372,13.641 	"/>
</g>
</svg>
