<?xml version="1.0" encoding="utf-8"?>
<!-- Generator: Adobe Illustrator 17.0.0, SVG Export Plug-In . SVG Version: 6.00 Build 0)  -->
<!DOCTYPE svg PUBLIC "-//W3C//DTD SVG 1.1//EN" "http://www.w3.org/Graphics/SVG/1.1/DTD/svg11.dtd">
<svg version="1.1" id="Calque_1" xmlns="http://www.w3.org/2000/svg" xmlns:xlink="http://www.w3.org/1999/xlink" x="0px" y="0px"
	 width="30px" height="30px" viewBox="0 0 30 30" enable-background="new 0 0 30 30" xml:space="preserve">
<path fill="#1E1E1E" d="M20.469,13.561h-1.19c0.087,0.337,0.138,0.688,0.138,1.052c0,2.323-1.883,4.206-4.206,4.206
	c-2.323,0-4.206-1.883-4.206-4.206c0-0.364,0.051-0.715,0.138-1.052h-1.19v5.784c0,0.29,0.235,0.525,0.526,0.525h9.464
	c0.291,0,0.526-0.235,0.526-0.525V13.561z M20.469,9.881c0-0.29-0.235-0.526-0.526-0.526h-1.577c-0.29,0-0.526,0.235-0.526,0.526
	v1.578c0,0.29,0.235,0.526,0.526,0.526h1.577c0.291,0,0.526-0.235,0.526-0.526V9.881z M15.21,11.984
	c-1.452,0-2.629,1.177-2.629,2.629c0,1.452,1.177,2.629,2.629,2.629s2.629-1.177,2.629-2.629
	C17.839,13.161,16.662,11.984,15.21,11.984 M20.469,21.448H9.952c-0.871,0-1.577-0.706-1.577-1.578V9.355
	c0-0.871,0.706-1.577,1.577-1.577h10.516c0.871,0,1.577,0.706,1.577,1.577V19.87C22.045,20.742,21.34,21.448,20.469,21.448"/>
</svg>
