<?xml version="1.0" encoding="utf-8"?>
<!-- Generator: Adobe Illustrator 17.0.0, SVG Export Plug-In . SVG Version: 6.00 Build 0)  -->
<!DOCTYPE svg PUBLIC "-//W3C//DTD SVG 1.1//EN" "http://www.w3.org/Graphics/SVG/1.1/DTD/svg11.dtd">
<svg version="1.1" id="Calque_1" xmlns="http://www.w3.org/2000/svg" xmlns:xlink="http://www.w3.org/1999/xlink" x="0px" y="0px"
	 width="30px" height="30px" viewBox="0 0 30 30" enable-background="new 0 0 30 30" xml:space="preserve">
<g>
	
		<polyline fill="none" stroke="#FFFFFF" stroke-width="2" stroke-linecap="round" stroke-linejoin="round" stroke-miterlimit="10" points="
		-98.099,31.03 -94.962,31.03 -92.721,41.787 -79.631,41.787 -76.045,32.943 -88.463,32.943 	"/>
	<circle fill="#FFFFFF" stroke="#FFFFFF" stroke-miterlimit="10" cx="-80.601" cy="45.277" r="1.198"/>
	<circle fill="#FFFFFF" stroke="#FFFFFF" stroke-miterlimit="10" cx="-92.01" cy="45.277" r="1.198"/>
</g>
<g>
	
		<circle fill="none" stroke="#FFFFFF" stroke-width="2" stroke-linecap="round" stroke-linejoin="round" stroke-miterlimit="10" cx="-73.043" cy="56.738" r="5.332"/>
	
		<line fill="none" stroke="#FFFFFF" stroke-width="2" stroke-linecap="round" stroke-linejoin="round" stroke-miterlimit="10" x1="-69.273" y1="60.508" x2="-64.289" y2="65.492"/>
</g>
<g>
	<defs>
		<path id="SVGID_1_" d="M27,21.012C27,22.11,26.11,23,25.012,23H4.988C3.89,23,3,22.11,3,21.012V7.988C3,6.89,3.89,6,4.988,6
			h20.024C26.11,6,27,6.89,27,7.988V21.012z"/>
	</defs>
	<clipPath id="SVGID_2_">
		<use xlink:href="#SVGID_1_"  overflow="visible"/>
	</clipPath>
	<g clip-path="url(#SVGID_2_)">
		<rect x="3" y="6" fill="#009FE3" width="8" height="17"/>
		<rect x="11" y="6" fill="#FFFFFF" width="8" height="17"/>
		<rect x="19" y="6" fill="#E7363C" width="8" height="17"/>
	</g>
</g>
</svg>
