<?xml version="1.0" encoding="utf-8"?>
<!-- Generator: Adobe Illustrator 17.0.0, SVG Export Plug-In . SVG Version: 6.00 Build 0)  -->
<!DOCTYPE svg PUBLIC "-//W3C//DTD SVG 1.1//EN" "http://www.w3.org/Graphics/SVG/1.1/DTD/svg11.dtd">
<svg version="1.1" id="Calque_1" xmlns="http://www.w3.org/2000/svg" xmlns:xlink="http://www.w3.org/1999/xlink" x="0px" y="0px"
	 width="306.265px" height="84.014px" viewBox="0 0 306.265 84.014" enable-background="new 0 0 306.265 84.014"
	 xml:space="preserve">
<g>
	<g>
		<path fill="#FFFFFF" d="M39.889,82.531c0,0,0.647-0.187,1.86-0.537c0.616-0.147,1.341-0.42,2.185-0.717
			c0.845-0.274,1.795-0.693,2.854-1.126c0.535-0.199,1.066-0.5,1.637-0.761c0.283-0.136,0.573-0.274,0.869-0.416l0.222-0.107
			c-0.01-0.005,0.127-0.074,0.183-0.108c0.151-0.085,0.304-0.17,0.458-0.257c0.601-0.353,1.294-0.691,1.894-1.084
			c0.601-0.399,1.221-0.78,1.85-1.218c0.622-0.462,1.264-0.939,1.926-1.429c0.315-0.262,0.635-0.529,0.959-0.799l0.487-0.405
			l0.123-0.102l0.061-0.051l0.031-0.026c-0.018,0.013,0.084-0.065-0.033,0.022l0.249-0.235c0.334-0.313,0.672-0.63,1.013-0.95
			l0.52-0.48l0.443-0.477c0.584-0.636,1.185-1.253,1.766-2.004c0.291-0.363,0.597-0.717,0.885-1.091
			c0.279-0.381,0.56-0.767,0.844-1.155l0.213-0.291l0.107-0.146l0.053-0.073c0.023-0.03-0.105,0.135-0.038,0.045l0.026-0.042
			l0.428-0.668c0.284-0.446,0.57-0.896,0.859-1.349c0.865-1.61,1.832-3.432,2.53-5.386l0.072-0.18l0.036-0.09l0.018-0.045
			c-0.016,0.037,0.061-0.146-0.031,0.071l0.134-0.411l0.271-0.826l0.279-0.829c0.095-0.28,0.125-0.49,0.192-0.738
			c0.113-0.484,0.245-0.944,0.354-1.447c0.097-0.521,0.195-1.046,0.294-1.573c0.106-0.524,0.138-1.065,0.213-1.599l0.051-0.402
			l0.027-0.201l0.014-0.1c0.007-0.047-0.029,0.235-0.012,0.088l0.004-0.057l0.064-0.917c0.127-1.331,0.065-2.211,0.053-3.265
			c-0.038-0.547-0.077-1.095-0.115-1.646c-0.068-0.547-0.137-1.096-0.206-1.647l-0.049-0.413c0.041,0.288,0.005,0.046,0.011,0.095
			l-0.011-0.059l-0.022-0.117l-0.044-0.235l-0.177-0.941c-0.062-0.295-0.112-0.671-0.184-0.901l-0.205-0.736l-0.196-0.737
			l-0.265-0.791c-0.181-0.529-0.34-1.067-0.571-1.58l-0.314-0.782l-0.077-0.196l-0.038-0.098l-0.019-0.049
			c0.022,0.05-0.077-0.182,0.045,0.1l-0.209-0.443l-0.419-0.887c-0.139-0.29-0.285-0.623-0.409-0.809
			c-0.266-0.443-0.489-0.874-0.773-1.335l-0.928-1.414l-1.015-1.356l-1.173-1.392l-1.067-1.099l-1.239-1.135
			c-0.431-0.363-0.881-0.704-1.317-1.061l-1.482-1.034l-1.305-0.795l-1.478-0.782l-0.767-0.342l-0.383-0.171l-0.191-0.086
			l-0.096-0.043l-0.048-0.022c-0.158-0.061,0.163,0.059,0.107,0.039c-0.613-0.22-1.275-0.474-1.846-0.666
			c-0.486-0.123-0.925-0.271-1.44-0.399c-0.543-0.107-1.076-0.267-1.621-0.357l-0.817-0.135l-0.408-0.07
			c0.057,0.004-0.2-0.022,0.116,0.008l-0.062-0.006l-0.123-0.012l-0.246-0.023l-0.983-0.092c-0.153-0.012-0.35-0.039-0.468-0.038
			l-0.362-0.004c-0.484-0.006-0.945-0.042-1.516-0.001c-0.545,0.014-1.089,0.038-1.627,0.109l-0.406,0.036l-0.203,0.017
			l-0.101,0.009l-0.051,0.004c0.305-0.053,0.05-0.009,0.103-0.018l-0.959,0.159l-0.479,0.079l-0.239,0.04l-0.172,0.043l-0.689,0.164
			c-0.439,0.076-0.991,0.282-1.491,0.421c-0.513,0.148-0.998,0.366-1.499,0.54l-0.093,0.034c-0.144,0.066,0.145-0.072,0.095-0.048
			l-0.054,0.025l-0.216,0.1l-0.431,0.199l-0.849,0.386c-0.409,0.234-0.8,0.408-1.238,0.669c-0.879,0.526-1.797,1.131-2.525,1.734
			l-0.708,0.586l-0.492,0.468c-0.328,0.274-0.68,0.65-1.03,1.019c-0.365,0.354-0.659,0.759-0.991,1.136l-0.121,0.143
			c0.025-0.04-0.099,0.14,0.049-0.081l-0.032,0.045l-0.065,0.091l-0.258,0.362l-0.514,0.721c-0.238,0.395-0.463,0.725-0.7,1.133
			c-0.216,0.437-0.491,0.848-0.683,1.291l-0.309,0.655l-0.078,0.163c-0.043,0.126,0.037-0.127,0.022-0.081l-0.019,0.05l-0.037,0.1
			l-0.15,0.398l-0.298,0.791l-0.186,0.609c-0.136,0.379-0.241,0.846-0.348,1.304c-0.124,0.454-0.174,0.912-0.268,1.366l-0.032,0.17
			c-0.008,0.122,0.001-0.119-0.001-0.075l-0.005,0.05l-0.01,0.1l-0.04,0.401l-0.078,0.796c-0.011,0.424-0.04,0.8-0.044,1.232
			c0.01,0.878,0.077,1.817,0.188,2.596l0.122,0.738c0.042,0.233,0.088,0.388,0.129,0.586l0.126,0.568l0.182,0.604
			c0.109,0.408,0.26,0.791,0.403,1.177l0.106,0.289l0.013,0.036c-0.083-0.149-0.012-0.019-0.026-0.042l0.037,0.079l0.072,0.158
			l0.287,0.628c0.098,0.227,0.183,0.378,0.268,0.536l0.253,0.483c0.175,0.326,0.405,0.662,0.601,0.99
			c0.223,0.315,0.442,0.626,0.658,0.932c0.054,0.058-0.052-0.047-0.031-0.025l0.025,0.03l0.051,0.06l0.101,0.12l0.2,0.24
			l0.392,0.469c0.234,0.25,0.465,0.495,0.691,0.737c0.263,0.243,0.522,0.482,0.776,0.717l0.399,0.324l0.197,0.161l0.098,0.08
			l0.049,0.04l0.024,0.02c0.019,0.013-0.08-0.043-0.025-0.01c0.302,0.211,0.597,0.417,0.887,0.619
			c0.982,0.645,2.188,1.242,3.142,1.55c0.556,0.165,1.1,0.363,1.58,0.474c0.476,0.09,0.923,0.174,1.338,0.252
			c0.107,0.021,0.211,0.041,0.314,0.06c0.022,0.028,0.193,0.014,0.279,0.023c0.211,0.007,0.413,0.014,0.607,0.021
			c0.387,0.013,0.738,0.025,1.053,0.036c1.233-0.105,1.891-0.162,1.891-0.162s-0.156,0.063-0.458,0.184
			c-0.305,0.117-0.762,0.316-1.381,0.529c-0.307,0.071-0.65,0.151-1.028,0.239c-0.189,0.044-0.386,0.09-0.592,0.138
			c-0.123,0.021-0.164,0.056-0.359,0.066c-0.115,0.009-0.233,0.018-0.352,0.027c-0.489,0.033-1.016,0.069-1.577,0.107
			c-0.55,0.001-1.085-0.062-1.677-0.093c-1.339-0.111-2.583-0.418-4.127-0.997c-0.327-0.135-0.66-0.274-1-0.415
			c-0.371-0.195-0.75-0.394-1.135-0.597c-0.356-0.217-0.718-0.438-1.086-0.663c-0.373-0.267-0.752-0.538-1.137-0.814l-0.485-0.39
			l-0.243-0.196L23.13,52.76l-0.061-0.05l-0.03-0.025c0,0-0.121-0.122-0.084-0.083c-0.332-0.324-0.679-0.649-1.014-0.995
			c-0.321-0.362-0.652-0.701-0.98-1.106c-0.163-0.209-0.327-0.419-0.492-0.631c-0.166-0.215-0.338-0.437-0.454-0.613l-0.393-0.568
			l-0.099-0.143l-0.049-0.072c-0.028-0.049,0.027,0.058-0.068-0.118l-0.024-0.042l-0.194-0.342c-0.261-0.458-0.53-0.922-0.754-1.412
			c-0.118-0.244-0.236-0.489-0.354-0.736c-0.11-0.271-0.22-0.544-0.33-0.818c-0.104-0.269-0.23-0.576-0.314-0.822l-0.236-0.71
			c-0.373-1.162-0.578-2.252-0.768-3.443c-0.083-0.605-0.135-1.279-0.189-1.913l-0.031-0.799l-0.016-0.402l-0.004-0.101l-0.002-0.05
			c-0.003,0.01,0.012-0.263,0.007-0.175l0.009-0.231c0.032-0.617,0.027-1.248,0.116-1.871c0.069-0.624,0.133-1.249,0.281-1.948
			l0.201-1.021l0.204-0.821l0.102-0.413l0.026-0.103l0.013-0.052l0.059-0.181l0.077-0.234l0.312-0.94
			c0.202-0.634,0.478-1.24,0.732-1.864c0.282-0.629,0.643-1.313,0.97-1.948l0.443-0.766l0.223-0.385l0.056-0.096l0.028-0.048
			l0.114-0.171l0.145-0.214c0.396-0.564,0.764-1.16,1.208-1.699c0.427-0.549,0.851-1.101,1.395-1.677l0.786-0.839l0.662-0.637
			c1.093-1.045,2.193-1.891,3.397-2.745c0.605-0.426,1.323-0.846,1.994-1.26l0.845-0.46l0.42-0.222l0.21-0.111l0.053-0.028
			l0.203-0.096l0.127-0.056c0.679-0.29,1.349-0.619,2.05-0.871c0.717-0.251,1.358-0.527,2.174-0.743l1.178-0.333l0.296-0.081
			l0.237-0.052l0.473-0.105l0.949-0.21l0.292-0.052l0.14-0.021l0.281-0.042l0.562-0.083c0.75-0.119,1.507-0.182,2.268-0.228
			c0.733-0.072,1.582-0.067,2.41-0.065l0.623,0.004c0.211,0.001,0.341,0.018,0.516,0.026l0.985,0.06l0.247,0.015l0.123,0.008
			l0.062,0.004l0.238,0.025l0.57,0.074l1.142,0.152c0.761,0.107,1.512,0.279,2.268,0.431c0.773,0.18,1.6,0.432,2.395,0.658
			c0.688,0.226,1.27,0.444,1.911,0.666l0.223,0.086l0.067,0.028l0.133,0.057l0.266,0.114l0.531,0.229l1.06,0.465
			c0.69,0.352,1.372,0.691,2.066,1.064c0.704,0.42,1.462,0.863,2.11,1.285l0.815,0.579l0.408,0.289l0.204,0.145l0.241,0.175
			l0.112,0.091c0.595,0.487,1.199,0.964,1.779,1.466c0.565,0.526,1.125,1.031,1.687,1.581c0.563,0.593,1.146,1.208,1.675,1.795
			l1.366,1.672l1.304,1.865l1.182,1.934c0.385,0.673,0.754,1.418,1.12,2.125c0.205,0.383,0.31,0.656,0.444,0.961l0.391,0.9
			l0.195,0.449c0.137,0.319,0.052,0.126,0.089,0.214l0.024,0.065l0.047,0.131l0.094,0.262l0.37,1.048
			c0.259,0.693,0.44,1.409,0.638,2.117l0.288,1.066l0.241,1.145l0.231,1.141c0.082,0.393,0.096,0.656,0.147,0.99l0.127,0.949
			l0.085,0.627l0.038,0.536c0.048,0.714,0.103,1.424,0.12,2.133c-0.004,0.708-0.008,1.414-0.012,2.117
			c-0.071,1.442-0.18,3.045-0.377,4.15l-0.132,0.91l-0.036,0.258l-0.026,0.125l-0.052,0.25l-0.107,0.497
			c-0.155,0.66-0.269,1.323-0.46,1.965c-0.185,0.642-0.37,1.28-0.553,1.915c-0.205,0.644-0.458,1.304-0.686,1.944
			c-0.118,0.31-0.234,0.668-0.354,0.932l-0.356,0.799l-0.36,0.791l-0.18,0.393c-0.104,0.251-0.045,0.1-0.075,0.169l-0.028,0.052
			l-0.056,0.105l-0.111,0.209c-0.297,0.554-0.593,1.104-0.886,1.651c-0.299,0.542-0.643,1.054-0.959,1.574
			c-0.6,1.028-1.404,2.062-2.113,3.038c-0.351,0.414-0.699,0.824-1.043,1.231l-0.514,0.603l-0.131,0.16l-0.074,0.077l-0.147,0.153
			L67.79,70.84c-0.39,0.404-0.776,0.803-1.159,1.199c-0.388,0.389-0.808,0.74-1.205,1.102c-0.772,0.725-1.649,1.395-2.483,2.044
			l-0.619,0.476l-0.588,0.393c-0.392,0.258-0.778,0.513-1.16,0.765l-0.286,0.187c-0.139,0.104-0.061,0.042-0.102,0.071l-0.039,0.022
			l-0.078,0.045l-0.156,0.089c-0.207,0.118-0.413,0.236-0.618,0.353c-0.408,0.232-0.81,0.461-1.207,0.686
			c-0.808,0.424-1.613,0.795-2.382,1.161c-0.793,0.347-1.592,0.645-2.339,0.946c-0.75,0.301-1.437,0.466-2.119,0.686
			c-0.169,0.051-0.337,0.102-0.502,0.153l-0.29,0.091L50.2,81.37c-0.34,0.08-0.673,0.159-0.999,0.236
			c-0.651,0.148-1.261,0.31-1.861,0.389c-1.189,0.191-2.235,0.373-3.178,0.414c-0.931,0.071-1.708,0.147-2.338,0.13
			C40.563,82.534,39.889,82.531,39.889,82.531z"/>
		<path fill="#FFFFFF" d="M39.836,29.136c0,0,0.621-0.264,1.802-0.705c0.316-0.073,0.668-0.154,1.057-0.244
			c0.199-0.045,0.407-0.091,0.624-0.14c0.123-0.019,0.19-0.059,0.368-0.063c0.11-0.009,0.221-0.018,0.335-0.027
			c0.455-0.036,0.945-0.075,1.467-0.117c0.534-0.006,1.146,0.066,1.786,0.108c0.162,0.013,0.325,0.027,0.491,0.041l0.125,0.011
			l0.148,0.028l0.227,0.041c0.312,0.063,0.599,0.094,0.95,0.194c0.342,0.093,0.704,0.183,1.058,0.292
			c0.347,0.119,0.702,0.24,1.064,0.364c0.358,0.153,0.723,0.309,1.096,0.468c0.341,0.177,0.689,0.357,1.044,0.54
			c0.368,0.226,0.744,0.456,1.125,0.689c0.356,0.252,0.718,0.508,1.087,0.768c0.177,0.145,0.355,0.29,0.535,0.437l0.27,0.224
			l0.136,0.113l0.068,0.057l0.034,0.029c0,0,0.102,0.109,0.073,0.075c0.307,0.298,0.607,0.569,0.932,0.902
			c0.331,0.37,0.695,0.753,1.012,1.144c0.303,0.396,0.637,0.775,0.925,1.21c0.146,0.216,0.293,0.434,0.441,0.653l0.111,0.166
			l0.056,0.083c0.024,0.045-0.015-0.041,0.062,0.111l0.022,0.038l0.175,0.304c0.234,0.405,0.469,0.79,0.721,1.341
			c0.123,0.258,0.247,0.517,0.372,0.778c0.104,0.255,0.21,0.512,0.315,0.771c0.221,0.511,0.4,1.053,0.572,1.609l0.132,0.417
			l0.033,0.105l0.042,0.183l0.047,0.184l0.184,0.741c0.064,0.227,0.117,0.536,0.169,0.847c0.051,0.308,0.102,0.617,0.154,0.927
			c0.083,0.61,0.132,1.198,0.19,1.812c0.009,0.309,0.019,0.62,0.028,0.932l0.012,0.471l0.003,0.118l0.001,0.059
			c0,0-0.017,0.23-0.009,0.156l-0.007,0.202l-0.026,0.813c-0.006,0.14-0.005,0.264-0.018,0.418L63.4,50.31
			c-0.072,0.668-0.151,1.348-0.278,1.965l-0.179,0.957l-0.246,0.962l-0.126,0.484l-0.032,0.121l-0.016,0.061
			c0,0-0.086,0.239-0.056,0.161l-0.066,0.203l-0.265,0.816c-0.048,0.141-0.081,0.264-0.14,0.419l-0.197,0.494l-0.407,0.992
			c-0.288,0.639-0.594,1.226-0.906,1.846l-0.528,0.902l-0.268,0.453l-0.067,0.113l-0.034,0.057l-0.104,0.148l-0.125,0.185
			l-0.502,0.742c-0.088,0.128-0.157,0.24-0.262,0.381l-0.342,0.441c-0.458,0.593-0.928,1.19-1.403,1.696l-0.723,0.79l-0.788,0.752
			l-0.398,0.376l-0.1,0.094l-0.05,0.047c0.076-0.059-0.16,0.134-0.152,0.126l-0.177,0.148l-0.712,0.595l-0.36,0.3l-0.467,0.344
			l-0.944,0.684c-0.631,0.442-1.243,0.799-1.875,1.2l-0.987,0.535l-0.499,0.262l-0.251,0.13l-0.063,0.032l-0.186,0.083l-0.109,0.048
			l-0.872,0.387c-0.291,0.129-0.56,0.256-0.967,0.399c-0.738,0.265-1.523,0.583-2.23,0.768c-0.724,0.212-1.447,0.433-2.204,0.579
			l-1.128,0.242l-1.119,0.17c-0.334,0.048-0.616,0.099-0.995,0.135l-1.217,0.094c-0.834,0.077-1.584,0.067-2.354,0.072
			c-0.767,0.025-1.547-0.059-2.324-0.101l-0.292-0.02l-0.146-0.01l-0.073-0.005l-0.212-0.027l-0.491-0.064l-0.982-0.128
			c-0.293-0.028-0.748-0.125-1.139-0.198l-1.212-0.241c-0.785-0.181-1.505-0.404-2.26-0.61c-0.742-0.241-1.479-0.514-2.217-0.776
			l-1.988-0.858c-0.733-0.367-1.481-0.738-2.195-1.123c-0.666-0.398-1.337-0.786-1.994-1.202l-0.96-0.674l-0.478-0.34l-0.238-0.17
			l-0.06-0.043l-0.177-0.136l-0.097-0.079c-0.525-0.434-1.012-0.816-1.567-1.293c-0.6-0.55-1.217-1.107-1.789-1.666l-1.579-1.682
			l-0.738-0.895L9.35,61.512l-0.183-0.224l-0.091-0.112L9.03,61.12l-0.135-0.178l-1.137-1.627c-0.415-0.65-0.844-1.359-1.255-2.038
			c-0.389-0.679-0.712-1.342-1.066-2.013c-0.347-0.668-0.622-1.379-0.931-2.065L4.281,52.68l-0.219-0.599l-0.327-0.92
			c-0.208-0.555-0.43-1.369-0.639-2.11l-0.304-1.12l-0.225-1.077c-0.151-0.716-0.303-1.428-0.386-2.157l-0.148-1.083l-0.087-0.679
			l-0.031-0.476c-0.038-0.647-0.091-1.233-0.107-1.926c0.001-0.748,0.002-1.492,0.003-2.234c0.076-1.43,0.154-2.803,0.379-4.18
			l0.147-1.025l0.04-0.253l0.024-0.112l0.048-0.224l0.096-0.447l0.2-0.888c0.065-0.293,0.126-0.58,0.232-0.937
			c0.192-0.674,0.383-1.345,0.573-2.012c0.206-0.646,0.441-1.249,0.66-1.867c0.207-0.617,0.471-1.213,0.735-1.803l0.394-0.881
			l0.199-0.436c0.104-0.231,0.043-0.091,0.073-0.155l0.026-0.047l0.052-0.095l0.103-0.189c0.274-0.504,0.546-1.005,0.816-1.502
			c0.281-0.507,0.656-1.088,0.978-1.618c0.653-1.115,1.379-2.025,2.07-2.988c0.378-0.452,0.754-0.901,1.126-1.345l0.557-0.658
			l0.131-0.154l0.069-0.07l0.137-0.141l0.274-0.28c0.364-0.373,0.725-0.743,1.082-1.109c0.375-0.374,0.824-0.765,1.229-1.133
			c1.65-1.502,3.279-2.674,4.927-3.743l0.303-0.2c0.132-0.093,0.058-0.038,0.097-0.064l0.037-0.021L19.7,7.681l0.148-0.083
			l0.586-0.33c0.388-0.218,0.771-0.434,1.149-0.646c0.804-0.422,1.645-0.819,2.426-1.191c3.128-1.391,6.044-2.132,8.351-2.553
			c1.206-0.197,2.264-0.38,3.194-0.418c0.925-0.07,1.702-0.145,2.342-0.129c1.265,0.006,1.94,0.01,1.94,0.01
			S39.19,2.527,37.98,2.878c-0.605,0.146-1.332,0.42-2.181,0.718c-0.857,0.278-1.796,0.694-2.837,1.122
			c-2.144,0.951-4.578,2.174-7.13,3.958c-0.608,0.453-1.236,0.92-1.882,1.4c-0.334,0.276-0.673,0.555-1.017,0.839l-0.519,0.428
			l-0.131,0.108l-0.066,0.054l-0.033,0.027c0.016-0.01-0.082,0.06,0.027-0.015l-0.232,0.222c-1.237,1.155-2.561,2.446-3.664,3.846
			c-2.56,3.057-4.349,6.083-5.963,10.249c-0.613,1.764-1.293,3.987-1.565,5.892c-0.052,0.224-0.088,0.533-0.126,0.836l-0.115,0.903
			l-0.062,0.452l-0.031,0.227l-0.015,0.113c-0.008,0.048,0.034-0.207,0.015-0.076l-0.003,0.05l-0.049,0.802
			c-0.099,1.059-0.068,2.168-0.051,3.236c0.035,0.508,0.071,1.017,0.107,1.529c0.073,0.616,0.146,1.233,0.22,1.854l0.056,0.473
			c-0.027-0.262-0.002-0.044-0.005-0.089l0.01,0.05l0.02,0.101l0.04,0.201l0.156,0.806c0.085,0.54,0.236,1.074,0.38,1.61
			l0.211,0.805l0.248,0.737c0.171,0.496,0.289,0.936,0.57,1.587l0.357,0.909l0.089,0.228l0.045,0.114l0.022,0.057
			c-0.017-0.043,0.069,0.177-0.032-0.082l0.18,0.373c0.249,0.495,0.454,1.006,0.732,1.492c0.279,0.478,0.546,0.992,0.827,1.446
			l0.855,1.311l1.183,1.594c-0.17-0.229-0.028-0.041-0.057-0.081l0.033,0.04l0.067,0.079l0.134,0.158l0.268,0.318l0.532,0.638
			l1.164,1.212l1.137,1.05c0.457,0.388,1.023,0.824,1.529,1.235l1.252,0.87l1.421,0.878l1.349,0.723l1.668,0.747l1.54,0.557
			c0.525,0.143,1.072,0.32,1.576,0.447l0.731,0.173c0.257,0.058,0.444,0.127,0.808,0.176l0.978,0.16l0.488,0.08
			c-0.047-0.006,0.191,0.027-0.09-0.01l0.05,0.004l0.1,0.009l0.201,0.018c0.537,0.04,1.064,0.131,1.612,0.123
			c0.542,0.013,1.103,0.043,1.572,0.008l0.738-0.019c0.27-0.014,0.633-0.063,0.945-0.088l0.485-0.047l0.242-0.023l0.121-0.012
			l0.061-0.006c-0.273,0.038-0.048,0.006-0.096,0.012l0.78-0.127c0.521-0.063,1.039-0.199,1.558-0.319
			c0.547-0.107,0.956-0.271,1.435-0.395c0.205-0.045,0.521-0.172,0.82-0.286l0.892-0.339c0.438-0.194,0.875-0.386,1.31-0.578
			c0.448-0.247,0.944-0.483,1.356-0.728l0.605-0.365l0.305-0.179l0.376-0.269l0.754-0.541l0.188-0.135
			c0.04-0.03-0.168,0.136-0.063,0.052l0.036-0.03l0.072-0.06l0.29-0.238l0.583-0.471l0.554-0.517
			c0.397-0.344,0.703-0.675,1.022-1.001l0.243-0.244c0.085-0.091,0.188-0.225,0.281-0.335l0.57-0.691l0.142-0.172
			c-0.021,0.031,0.098-0.13-0.039,0.058l0.026-0.037l0.053-0.074l0.213-0.294l0.429-0.585c0.253-0.41,0.533-0.836,0.764-1.235
			l0.325-0.582l0.167-0.289c0.057-0.107,0.119-0.255,0.178-0.38l0.357-0.78l0.089-0.194c0.042-0.111-0.032,0.096-0.019,0.061
			l0.015-0.041l0.031-0.082l0.126-0.326l0.255-0.65l0.208-0.674c0.156-0.461,0.247-0.873,0.35-1.287l0.08-0.312l0.07-0.394
			l0.136-0.802l0.034-0.2c0.01-0.108-0.004,0.09-0.001,0.055l0.005-0.042l0.009-0.083l0.036-0.332l0.076-0.663
			c0.015-0.444,0.042-0.907,0.046-1.334l-0.013-0.617c-0.001-0.202,0.001-0.403-0.036-0.677l-0.077-0.76l-0.018-0.189l-0.005-0.047
			c0.006,0.025-0.02-0.122,0.012,0.044l-0.012-0.078l-0.049-0.313c-0.058-0.418-0.122-0.835-0.23-1.247l-0.141-0.616l-0.165-0.563
			c-0.081-0.348-0.266-0.81-0.436-1.248l-0.126-0.327l-0.015-0.041c0.064,0.126,0.009,0.016,0.02,0.035l-0.03-0.068l-0.06-0.136
			l-0.239-0.543c-0.152-0.364-0.365-0.703-0.54-1.054c-0.186-0.34-0.383-0.632-0.569-0.952c-0.224-0.333-0.499-0.69-0.74-1.025
			c-0.219-0.271-0.435-0.538-0.647-0.801c-0.251-0.265-0.498-0.527-0.741-0.783c-0.25-0.234-0.495-0.464-0.737-0.69
			c-0.149-0.119-0.297-0.237-0.443-0.353l-0.219-0.174l-0.109-0.086l-0.054-0.044l-0.027-0.022
			c-0.018-0.014,0.062,0.037,0.016,0.007c-0.269-0.192-0.532-0.381-0.791-0.566c-0.277-0.168-0.549-0.333-0.815-0.495
			c-0.267-0.152-0.528-0.279-0.787-0.419c-0.249-0.139-0.575-0.255-0.847-0.384l-0.211-0.093c-0.02-0.01-0.104-0.043-0.07-0.033
			l-0.096-0.031c-0.128-0.041-0.255-0.082-0.38-0.122c-0.509-0.154-0.975-0.344-1.471-0.46c-0.516-0.093-0.999-0.181-1.449-0.262
			c-0.112-0.02-0.223-0.041-0.331-0.06c-0.041-0.023-0.186-0.013-0.271-0.021c-0.2-0.008-0.392-0.015-0.575-0.023
			c-0.376-0.015-0.718-0.028-1.024-0.04C40.506,29.077,39.836,29.136,39.836,29.136z"/>
	</g>
	<g>
		<path fill="#FFFFFF" d="M106.74,57.848V29.656h3.222v28.193H106.74z"/>
		<path fill="#FFFFFF" d="M133.12,48.867c-0.604,0.04-1.248,0.081-1.893,0.081h-7.492v8.901h-3.222V29.656h10.714
			c7.048,0,11.116,3.464,11.116,9.465c0,4.672-2.256,7.813-6.323,9.142l6.605,9.586h-3.665L133.12,48.867z M131.227,45.846
			c5.115,0,8.014-2.255,8.014-6.646c0-4.269-2.9-6.444-8.014-6.444h-7.492v13.09H131.227z"/>
		<path fill="#FFFFFF" d="M178.51,43.752c0,7.934-6.524,14.257-14.74,14.257c-8.257,0-14.781-6.323-14.781-14.257
			c0-7.974,6.524-14.177,14.781-14.177C171.986,29.575,178.51,35.818,178.51,43.752z M152.251,43.752
			c0,6.202,5.236,11.156,11.519,11.156c6.282,0,11.438-4.954,11.438-11.156s-5.155-11.116-11.438-11.116
			C157.487,32.636,152.251,37.55,152.251,43.752z"/>
		<path fill="#FFFFFF" d="M206.542,57.848l-16.915-22.635v22.635h-3.222V29.656h3.343l16.915,22.675V29.656h3.182v28.193H206.542z"
			/>
		<path fill="#FFFFFF" d="M247.301,43.752c0,7.934-6.524,14.257-14.741,14.257c-8.256,0-14.781-6.323-14.781-14.257
			c0-7.974,6.524-14.177,14.781-14.177C240.777,29.575,247.301,35.818,247.301,43.752z M221.042,43.752
			c0,6.202,5.236,11.156,11.519,11.156c6.283,0,11.438-4.954,11.438-11.156s-5.155-11.116-11.438-11.116
			C226.278,32.636,221.042,37.55,221.042,43.752z"/>
		<path fill="#FFFFFF" d="M262.243,57.848l-11.438-28.193h3.464l9.706,24.447l9.747-24.447h3.383l-11.519,28.193H262.243z"/>
		<path fill="#FFFFFF" d="M284.235,50.72l-3.142,7.129h-3.424l12.646-28.193h3.343l12.606,28.193h-3.503l-3.142-7.129H284.235z
			 M291.887,33.321l-6.282,14.298h12.646L291.887,33.321z"/>
	</g>
</g>
</svg>
