<?xml version="1.0" encoding="utf-8"?>
<!-- Generator: Adobe Illustrator 17.0.0, SVG Export Plug-In . SVG Version: 6.00 Build 0)  -->
<!DOCTYPE svg PUBLIC "-//W3C//DTD SVG 1.1//EN" "http://www.w3.org/Graphics/SVG/1.1/DTD/svg11.dtd">
<svg version="1.1" id="Calque_1" xmlns="http://www.w3.org/2000/svg" xmlns:xlink="http://www.w3.org/1999/xlink" x="0px" y="0px"
	 width="72px" height="47px" viewBox="0 0 72 47" enable-background="new 0 0 72 47" xml:space="preserve">
<g>
	<path fill="#354960" d="M72,43.105C72,45.256,70.256,47,68.105,47H3.895C1.744,47,0,45.256,0,43.105V3.895C0,1.744,1.744,0,3.895,0
		h64.211C70.256,0,72,1.744,72,3.895V43.105z"/>
</g>
<g id="layer1" transform="translate(-457.20465,-631.07671)">
	<path id="path618" fill="#006EB8" d="M493.205,666.337c3.208-2.903,5.214-7.099,5.214-11.762c0-4.663-2.005-8.855-5.214-11.759
		c-2.807-2.552-6.558-4.105-10.64-4.105c-8.776,0-15.877,7.102-15.877,15.864c0,8.765,7.101,15.867,15.877,15.867
		C486.646,670.443,490.397,668.886,493.205,666.337"/>
	<path id="path620" fill="#0066CB" d="M493.205,666.337c3.208-2.903,5.214-7.099,5.214-11.762c0-4.663-2.005-8.855-5.214-11.759"/>
	<path id="path622" fill="none" stroke="#0066CB" stroke-width="0.3097" d="M493.205,666.337c3.208-2.903,5.214-7.099,5.214-11.762
		c0-4.663-2.005-8.855-5.214-11.759"/>
	<path id="path624" fill="#C74F5C" d="M503.868,638.711c-4.105,0-7.856,1.553-10.663,4.105c-0.566,0.522-1.109,1.083-1.604,1.682
		h3.208c0.448,0.532,0.85,1.092,1.203,1.679h-5.615c-0.33,0.538-0.637,1.099-0.92,1.679h7.455c0.259,0.545,0.472,1.105,0.66,1.682
		h-8.776c-0.189,0.545-0.354,1.106-0.472,1.679h9.72c0.236,1.083,0.354,2.207,0.354,3.358c0,1.762-0.283,3.458-0.826,5.04h-8.776
		c0.189,0.576,0.401,1.137,0.66,1.681h7.455c-0.283,0.581-0.566,1.141-0.92,1.679h-5.615c0.354,0.587,0.779,1.147,1.203,1.679h3.208
		c-0.495,0.599-1.038,1.16-1.604,1.682c2.807,2.549,6.558,4.106,10.663,4.106c8.753,0,15.854-7.102,15.854-15.867
		C519.721,645.813,512.62,638.711,503.868,638.711"/>
	<path id="path640" fill="#FFFFFF" d="M514.696,657.985h0.07c0,0,0.024,0,0.047-0.01c0.023-0.01,0.024-0.032,0.024-0.052
		c0-0.016,0-0.035-0.024-0.045c0-0.01-0.047-0.01-0.07-0.01h-0.047V657.985L514.696,657.985z M514.696,658.239h-0.095v-0.451h0.189
		c0.024,0,0.071,0.003,0.118,0.026c0.024,0.022,0.047,0.068,0.047,0.113c0,0.048-0.024,0.097-0.07,0.116l0.07,0.197h-0.118
		l-0.071-0.177h-0.07V658.239L514.696,658.239z M514.767,658.404c0.213,0,0.378-0.174,0.378-0.39c0-0.213-0.165-0.387-0.378-0.387
		c-0.212,0-0.401,0.174-0.401,0.387C514.366,658.23,514.555,658.404,514.767,658.404z M514.248,658.013
		c0-0.28,0.236-0.509,0.519-0.509c0.283,0,0.519,0.228,0.519,0.509c0,0.284-0.236,0.512-0.519,0.512
		C514.484,658.526,514.248,658.297,514.248,658.013"/>
	<path id="path642" fill="#FFFFFF" d="M480.583,658.526h-1.982l1.179-6.184l-2.713,6.184h-1.793l-0.33-6.145l-1.179,6.145h-1.793
		l1.533-8.043h3.09l0.141,4.982l2.194-4.982h3.208L480.583,658.526"/>
	<path id="path644" fill="#FFFFFF" d="M502.641,658.449c-0.543,0.148-0.967,0.212-1.416,0.212c-1.014,0-1.557-0.509-1.557-1.437
		c0-0.184,0.024-0.38,0.047-0.587l0.118-0.642l0.094-0.519l0.921-4.995h1.958l-0.283,1.502h1.014l-0.283,1.592h-1.014l-0.519,2.729
		c-0.024,0.12-0.024,0.209-0.024,0.271c0,0.339,0.212,0.484,0.684,0.484c0.212,0,0.378-0.019,0.519-0.062L502.641,658.449"/>
	<path id="path648" fill="#FFFFFF" d="M508.397,652.039c-0.165-0.065-0.189-0.065-0.212-0.071c-0.095-0.023-0.166-0.035-0.166-0.039
		c-0.07-0.01-0.141-0.016-0.212-0.016c-0.637,0-1.108,0.29-1.722,1.064l0.189-0.993h-1.793l-1.203,6.542h1.982
		c0.708-3.999,1.014-4.701,1.958-4.701c0.071,0,0.141,0.006,0.236,0.016l0.236,0.048L508.397,652.039"/>
	<path id="path650" fill="#FFFFFF" d="M494.808,654.053c0,0.825,0.472,1.395,1.534,1.824c0.802,0.326,0.92,0.422,0.92,0.722
		c0,0.406-0.354,0.589-1.133,0.589c-0.614,0-1.156-0.081-1.793-0.258l-0.283,1.508l0.094,0.016l0.354,0.064
		c0.118,0.023,0.307,0.042,0.543,0.059c0.472,0.035,0.826,0.055,1.085,0.055c2.123,0,3.09-0.69,3.09-2.182
		c0-0.899-0.401-1.424-1.415-1.821c-0.826-0.332-0.921-0.406-0.921-0.712c0-0.351,0.331-0.532,0.967-0.532
		c0.401,0,0.92,0.035,1.439,0.097l0.283-1.514c-0.519-0.071-1.297-0.129-1.769-0.129
		C495.587,651.839,494.808,652.845,494.808,654.053"/>
	<path id="path652" fill="#FFFFFF" d="M485.561,655.613c-0.212-0.022-0.307-0.026-0.448-0.026c-1.109,0-1.675,0.335-1.675,0.995
		c0,0.406,0.26,0.667,0.708,0.667C484.947,657.25,485.514,656.579,485.561,655.613L485.561,655.613z M487,658.526h-1.652
		l0.047-0.677c-0.495,0.538-1.179,0.789-2.076,0.789c-1.062,0-1.793-0.728-1.793-1.785c0-1.592,1.274-2.523,3.468-2.523
		c0.212,0,0.495,0.019,0.802,0.052c0.047-0.216,0.071-0.306,0.071-0.425c0-0.432-0.354-0.593-1.274-0.593
		c-0.566,0-1.203,0.068-1.628,0.18l-0.283,0.071l-0.165,0.042l0.26-1.473c0.991-0.251,1.627-0.345,2.359-0.345
		c1.698,0,2.595,0.664,2.595,1.918c0,0.322-0.024,0.567-0.141,1.295l-0.425,2.324l-0.071,0.416l-0.047,0.332l-0.024,0.225
		L487,658.526"/>
	<path id="path654" fill="#FFFFFF" d="M492.426,654.495c0-0.138,0-0.248,0-0.335c0-0.532-0.33-0.841-0.92-0.841
		c-0.637,0-1.085,0.416-1.274,1.173L492.426,654.495L492.426,654.495z M493.464,658.387c-0.661,0.177-1.321,0.264-2.006,0.264
		c-2.217,0-3.374-1.005-3.374-2.932c0-2.243,1.462-3.896,3.444-3.896c1.628,0,2.666,0.925,2.666,2.375
		c0,0.484-0.071,0.954-0.236,1.617h-3.916c-0.024,0.1-0.024,0.145-0.024,0.206c0,0.758,0.589,1.144,1.722,1.144
		c0.708,0,1.345-0.129,2.052-0.416L493.464,658.387"/>
	<path id="path656" fill="#FFFFFF" d="M512.502,654.723c0-0.683-0.283-1.331-1.085-1.331c-1.014,0-1.627,1.192-1.627,2.243
		c0,0.889,0.425,1.486,1.133,1.472c0.425,0,1.345-0.583,1.51-1.602C512.479,655.268,512.502,655.007,512.502,654.723z
		 M514.555,655.562c-0.307,2.175-1.817,3.141-3.845,3.141c-2.241,0-3.138-1.357-3.138-3.016c0-2.317,1.533-3.889,3.893-3.889
		c2.052,0,3.138,1.292,3.138,2.952C514.602,655.155,514.602,655.181,514.555,655.562"/>
</g>
</svg>
