<?xml version="1.0" encoding="utf-8"?>
<!-- Generator: Adobe Illustrator 17.0.0, SVG Export Plug-In . SVG Version: 6.00 Build 0)  -->
<!DOCTYPE svg PUBLIC "-//W3C//DTD SVG 1.1//EN" "http://www.w3.org/Graphics/SVG/1.1/DTD/svg11.dtd">
<svg version="1.1" id="Calque_1" xmlns="http://www.w3.org/2000/svg" xmlns:xlink="http://www.w3.org/1999/xlink" x="0px" y="0px"
	 width="100px" height="100px" viewBox="0 0 100 100" enable-background="new 0 0 100 100" xml:space="preserve">
<path fill="#1E1E1E" d="M84.625,42.213c0-19.036-15.486-34.523-34.523-34.523S15.579,23.177,15.579,42.213
	c0,15.332,10.054,28.347,23.91,32.836l10.597,14.77c0.172,0.242,0.449,0.383,0.745,0.383c0.295,0,0.573-0.141,0.745-0.383
	l11.118-15.495C75.514,69.279,84.625,56.804,84.625,42.213z"/>
<g>
	<path fill="#FFFFFF" d="M50.1,60.195c0,0,0.289-0.083,0.83-0.239c0.275-0.065,0.599-0.188,0.975-0.32
		c0.377-0.122,0.801-0.309,1.274-0.502c0.239-0.089,0.476-0.223,0.731-0.34c0.126-0.061,0.256-0.122,0.388-0.186l0.099-0.048
		c-0.004-0.002,0.056-0.033,0.082-0.048c0.067-0.038,0.135-0.076,0.204-0.114c0.268-0.157,0.577-0.309,0.845-0.484
		c0.268-0.178,0.545-0.348,0.825-0.543c0.278-0.206,0.564-0.419,0.859-0.638c0.141-0.117,0.283-0.236,0.428-0.356l0.217-0.181
		l0.055-0.045l0.027-0.023l0.014-0.011c-0.008,0.006,0.037-0.029-0.015,0.01l0.111-0.105c0.149-0.14,0.3-0.281,0.452-0.424
		l0.232-0.214l0.197-0.213c0.261-0.284,0.529-0.559,0.788-0.894c0.13-0.162,0.267-0.32,0.395-0.487
		c0.124-0.17,0.25-0.342,0.376-0.516l0.095-0.13l0.048-0.065l0.024-0.033c0.01-0.013-0.047,0.06-0.017,0.02l0.012-0.019l0.191-0.298
		c0.127-0.199,0.254-0.4,0.383-0.602c0.386-0.718,0.818-1.532,1.129-2.403l0.032-0.08l0.016-0.04l0.008-0.02
		c-0.007,0.016,0.027-0.065-0.014,0.032l0.06-0.184l0.121-0.369l0.124-0.37c0.042-0.125,0.056-0.219,0.086-0.329
		c0.051-0.216,0.109-0.421,0.158-0.646c0.043-0.233,0.087-0.467,0.131-0.702c0.047-0.234,0.061-0.475,0.095-0.713l0.023-0.179
		l0.012-0.09l0.006-0.045c0.003-0.021-0.013,0.105-0.006,0.039l0.002-0.026l0.028-0.409c0.057-0.594,0.029-0.987,0.024-1.457
		c-0.017-0.244-0.034-0.489-0.051-0.735c-0.031-0.244-0.061-0.489-0.092-0.735l-0.022-0.184c0.018,0.129,0.002,0.021,0.005,0.043
		l-0.005-0.026l-0.01-0.052l-0.02-0.105l-0.079-0.42c-0.028-0.132-0.05-0.3-0.082-0.402l-0.091-0.328l-0.087-0.329l-0.118-0.353
		c-0.081-0.236-0.152-0.476-0.255-0.705l-0.14-0.349l-0.034-0.088l-0.017-0.044l-0.009-0.022c0.01,0.022-0.034-0.081,0.02,0.045
		l-0.093-0.198l-0.187-0.396c-0.062-0.129-0.127-0.278-0.182-0.361c-0.119-0.198-0.218-0.39-0.345-0.596l-0.414-0.631L60.5,36.581
		l-0.523-0.621L59.5,35.47l-0.553-0.507c-0.192-0.162-0.393-0.314-0.588-0.474l-0.661-0.461l-0.582-0.355l-0.659-0.349l-0.342-0.153
		l-0.171-0.077l-0.085-0.038l-0.043-0.019l-0.021-0.01c-0.07-0.027,0.073,0.027,0.048,0.017c-0.274-0.098-0.569-0.212-0.824-0.297
		c-0.217-0.055-0.413-0.121-0.643-0.178c-0.242-0.048-0.48-0.119-0.723-0.159l-0.365-0.06l-0.182-0.031
		c0.026,0.002-0.089-0.01,0.052,0.003l-0.027-0.003l-0.055-0.005l-0.11-0.01l-0.438-0.041c-0.068-0.005-0.156-0.017-0.209-0.017
		l-0.162-0.002c-0.216-0.003-0.422-0.019-0.676-0.001c-0.243,0.006-0.486,0.017-0.726,0.048l-0.181,0.016l-0.09,0.008l-0.045,0.004
		l-0.023,0.002c0.136-0.024,0.022-0.004,0.046-0.008l-0.428,0.071l-0.214,0.035l-0.107,0.018l-0.077,0.019l-0.308,0.073
		c-0.196,0.034-0.442,0.126-0.665,0.188c-0.229,0.066-0.445,0.163-0.669,0.241l-0.042,0.015c-0.064,0.03,0.065-0.032,0.042-0.021
		l-0.024,0.011l-0.096,0.044l-0.192,0.089l-0.379,0.172c-0.182,0.104-0.357,0.182-0.553,0.298c-0.392,0.235-0.802,0.505-1.127,0.774
		l-0.316,0.261l-0.22,0.209c-0.146,0.122-0.303,0.29-0.46,0.455c-0.163,0.158-0.294,0.339-0.442,0.507l-0.054,0.064
		c0.011-0.018-0.044,0.063,0.022-0.036l-0.014,0.02l-0.029,0.04l-0.115,0.161l-0.23,0.322c-0.106,0.176-0.206,0.323-0.312,0.505
		c-0.096,0.195-0.219,0.379-0.305,0.576L43.01,37.72l-0.035,0.073c-0.019,0.056,0.017-0.057,0.01-0.036l-0.008,0.022l-0.017,0.044
		l-0.067,0.178l-0.133,0.353l-0.083,0.272c-0.061,0.169-0.108,0.377-0.155,0.582c-0.055,0.203-0.078,0.407-0.12,0.609l-0.014,0.076
		c-0.003,0.054,0.001-0.053-0.001-0.033l-0.002,0.022l-0.004,0.045l-0.018,0.179l-0.035,0.355c-0.005,0.189-0.018,0.357-0.02,0.55
		c0.005,0.392,0.034,0.811,0.084,1.158l0.055,0.329c0.019,0.104,0.039,0.173,0.058,0.261l0.056,0.254l0.081,0.27
		c0.049,0.182,0.116,0.353,0.18,0.525l0.047,0.129l0.006,0.016c-0.037-0.067-0.006-0.008-0.012-0.019l0.016,0.035l0.032,0.071
		l0.128,0.28c0.044,0.101,0.082,0.169,0.12,0.239l0.113,0.216c0.078,0.145,0.181,0.295,0.268,0.442
		c0.099,0.141,0.197,0.279,0.294,0.416c0.024,0.026-0.023-0.021-0.014-0.011l0.011,0.013l0.023,0.027l0.045,0.054l0.089,0.107
		l0.175,0.209c0.105,0.111,0.207,0.221,0.309,0.329c0.117,0.109,0.233,0.215,0.346,0.32l0.178,0.145l0.088,0.072l0.044,0.036
		l0.022,0.018l0.011,0.009c0.008,0.006-0.036-0.019-0.011-0.004c0.135,0.094,0.267,0.186,0.396,0.276
		c0.438,0.288,0.976,0.554,1.402,0.692c0.248,0.074,0.491,0.162,0.705,0.212c0.213,0.04,0.412,0.077,0.597,0.112
		c0.048,0.009,0.094,0.018,0.14,0.027c0.01,0.013,0.086,0.006,0.124,0.01c0.094,0.003,0.184,0.006,0.271,0.009
		c0.173,0.006,0.329,0.011,0.47,0.016c0.55-0.047,0.844-0.072,0.844-0.072s-0.07,0.028-0.205,0.082
		c-0.136,0.052-0.34,0.141-0.616,0.236c-0.137,0.032-0.29,0.068-0.459,0.107c-0.084,0.02-0.172,0.04-0.264,0.061
		c-0.055,0.009-0.073,0.025-0.16,0.029c-0.051,0.004-0.104,0.008-0.157,0.012c-0.218,0.015-0.453,0.031-0.704,0.048
		c-0.246,0.001-0.484-0.028-0.748-0.042c-0.598-0.05-1.153-0.187-1.842-0.445c-0.146-0.06-0.294-0.122-0.446-0.185
		c-0.166-0.087-0.334-0.176-0.506-0.266c-0.159-0.097-0.32-0.195-0.485-0.296c-0.166-0.119-0.335-0.24-0.507-0.363l-0.217-0.174
		l-0.108-0.088l-0.054-0.044l-0.027-0.022l-0.014-0.011c0,0-0.054-0.054-0.038-0.037c-0.148-0.145-0.303-0.29-0.452-0.444
		c-0.143-0.162-0.291-0.313-0.437-0.494c-0.073-0.093-0.146-0.187-0.219-0.282c-0.074-0.096-0.151-0.195-0.202-0.274l-0.175-0.253
		l-0.044-0.064l-0.022-0.032c-0.012-0.022,0.012,0.026-0.031-0.053l-0.011-0.019l-0.087-0.152c-0.116-0.204-0.237-0.411-0.336-0.63
		c-0.052-0.109-0.105-0.218-0.158-0.328c-0.049-0.121-0.098-0.243-0.147-0.365c-0.046-0.12-0.102-0.257-0.14-0.367l-0.105-0.317
		c-0.166-0.518-0.258-1.005-0.343-1.536c-0.037-0.27-0.06-0.571-0.084-0.854l-0.014-0.357l-0.007-0.18l-0.002-0.045l-0.001-0.023
		c-0.001,0.005,0.005-0.118,0.003-0.078l0.004-0.103c0.014-0.275,0.012-0.557,0.052-0.835c0.031-0.278,0.059-0.557,0.125-0.869
		l0.09-0.456l0.091-0.366l0.046-0.184l0.011-0.046l0.006-0.023l0.026-0.081l0.034-0.104l0.139-0.42
		c0.09-0.283,0.213-0.553,0.327-0.832c0.126-0.281,0.287-0.586,0.433-0.869l0.198-0.342l0.099-0.172l0.025-0.043l0.012-0.022
		l0.051-0.076l0.065-0.095c0.177-0.252,0.341-0.518,0.539-0.758c0.19-0.245,0.38-0.491,0.622-0.748l0.351-0.375l0.296-0.284
		c0.488-0.466,0.979-0.844,1.516-1.225c0.27-0.19,0.59-0.377,0.89-0.562l0.377-0.205l0.187-0.099l0.094-0.05l0.023-0.012
		l0.091-0.043l0.057-0.025c0.303-0.129,0.602-0.276,0.915-0.389c0.32-0.112,0.606-0.235,0.97-0.331l0.526-0.149l0.132-0.036
		l0.106-0.023l0.211-0.047l0.424-0.094l0.13-0.023l0.063-0.009l0.125-0.019l0.251-0.037c0.335-0.053,0.672-0.081,1.012-0.102
		c0.327-0.032,0.706-0.03,1.076-0.029l0.278,0.002c0.094,0.001,0.152,0.008,0.23,0.011l0.44,0.027l0.11,0.007l0.055,0.003
		l0.028,0.002l0.106,0.011l0.254,0.033l0.51,0.068c0.34,0.048,0.675,0.125,1.012,0.192c0.345,0.08,0.714,0.193,1.069,0.294
		c0.307,0.101,0.567,0.198,0.853,0.297l0.099,0.038l0.03,0.013l0.059,0.025l0.119,0.051l0.237,0.102l0.473,0.207
		c0.308,0.157,0.612,0.308,0.922,0.475c0.314,0.187,0.652,0.385,0.941,0.574l0.364,0.258l0.182,0.129l0.091,0.065l0.108,0.078
		l0.05,0.04c0.265,0.217,0.535,0.43,0.794,0.654c0.252,0.235,0.502,0.46,0.753,0.705c0.251,0.264,0.511,0.539,0.747,0.801
		l0.609,0.746l0.582,0.832l0.528,0.863c0.172,0.3,0.336,0.633,0.5,0.948c0.091,0.171,0.138,0.293,0.198,0.429l0.174,0.402
		l0.087,0.201c0.061,0.142,0.023,0.056,0.04,0.096l0.011,0.029l0.021,0.058l0.042,0.117l0.165,0.467
		c0.115,0.309,0.196,0.629,0.285,0.945l0.129,0.476l0.107,0.511l0.103,0.509c0.037,0.175,0.043,0.293,0.065,0.442l0.056,0.423
		l0.038,0.28l0.017,0.239c0.022,0.319,0.046,0.636,0.054,0.952c-0.002,0.316-0.003,0.631-0.005,0.945
		c-0.032,0.644-0.08,1.359-0.168,1.852l-0.059,0.406l-0.016,0.115l-0.012,0.056l-0.023,0.111l-0.048,0.222
		c-0.069,0.294-0.12,0.59-0.205,0.877c-0.083,0.286-0.165,0.571-0.247,0.854c-0.092,0.287-0.204,0.582-0.306,0.868
		c-0.053,0.138-0.105,0.298-0.158,0.416l-0.159,0.356L65.5,50.641l-0.08,0.175c-0.046,0.112-0.02,0.044-0.033,0.076l-0.012,0.023
		l-0.025,0.047l-0.05,0.093c-0.133,0.247-0.264,0.493-0.395,0.737c-0.133,0.242-0.287,0.47-0.428,0.702
		c-0.268,0.459-0.627,0.92-0.943,1.356c-0.157,0.185-0.312,0.368-0.466,0.549l-0.229,0.269l-0.058,0.071l-0.033,0.034l-0.066,0.068
		l-0.131,0.136c-0.174,0.18-0.346,0.358-0.517,0.535c-0.173,0.174-0.361,0.33-0.538,0.492c-0.345,0.323-0.736,0.623-1.108,0.912
		l-0.276,0.212l-0.262,0.176c-0.175,0.115-0.347,0.229-0.518,0.341l-0.128,0.084c-0.062,0.046-0.027,0.019-0.046,0.032l-0.017,0.01
		l-0.035,0.02l-0.07,0.04c-0.093,0.053-0.184,0.105-0.276,0.157c-0.182,0.103-0.362,0.206-0.539,0.306
		c-0.361,0.189-0.72,0.355-1.063,0.518c-0.354,0.155-0.711,0.288-1.044,0.422c-0.335,0.134-0.641,0.208-0.946,0.306
		c-0.076,0.023-0.15,0.046-0.224,0.068l-0.129,0.041L54.7,59.677c-0.152,0.036-0.3,0.071-0.446,0.105
		c-0.29,0.066-0.563,0.138-0.83,0.174c-0.53,0.085-0.997,0.166-1.418,0.185c-0.415,0.032-0.762,0.066-1.043,0.058
		C50.4,60.196,50.1,60.195,50.1,60.195z"/>
	<path fill="#FFFFFF" d="M50.076,36.368c0,0,0.277-0.118,0.804-0.315c0.141-0.032,0.298-0.069,0.471-0.109
		c0.089-0.02,0.181-0.041,0.278-0.062c0.055-0.009,0.085-0.026,0.164-0.028c0.049-0.004,0.099-0.008,0.15-0.012
		c0.203-0.016,0.422-0.034,0.654-0.052c0.238-0.003,0.512,0.029,0.797,0.048c0.072,0.006,0.145,0.012,0.219,0.018l0.056,0.005
		l0.066,0.012l0.101,0.018c0.139,0.028,0.267,0.042,0.424,0.086c0.153,0.042,0.314,0.081,0.472,0.131
		c0.155,0.053,0.313,0.107,0.475,0.162c0.16,0.068,0.323,0.138,0.489,0.209c0.152,0.079,0.308,0.159,0.466,0.241
		c0.164,0.101,0.332,0.203,0.502,0.308c0.159,0.112,0.321,0.227,0.485,0.343c0.079,0.065,0.158,0.13,0.239,0.195l0.121,0.1
		l0.061,0.051l0.03,0.026l0.015,0.013c0,0,0.046,0.048,0.033,0.034c0.137,0.133,0.271,0.254,0.416,0.403
		c0.148,0.165,0.31,0.336,0.452,0.51c0.135,0.177,0.284,0.346,0.413,0.54c0.065,0.097,0.131,0.194,0.197,0.292l0.049,0.074
		l0.025,0.037c0.011,0.02-0.007-0.018,0.028,0.049l0.01,0.017l0.078,0.135c0.104,0.181,0.209,0.353,0.322,0.598
		c0.055,0.115,0.11,0.231,0.166,0.347c0.047,0.114,0.094,0.229,0.141,0.344c0.098,0.228,0.179,0.47,0.255,0.718l0.059,0.186
		l0.015,0.047l0.019,0.081l0.021,0.082l0.082,0.331c0.028,0.101,0.052,0.239,0.075,0.378c0.023,0.137,0.046,0.275,0.069,0.414
		c0.037,0.272,0.059,0.534,0.085,0.808c0.004,0.138,0.008,0.277,0.013,0.416l0.005,0.21l0.001,0.053l0.001,0.026
		c0,0-0.008,0.103-0.004,0.069l-0.003,0.09l-0.012,0.363c-0.003,0.063-0.002,0.118-0.008,0.187l-0.024,0.222
		c-0.032,0.298-0.067,0.602-0.124,0.877l-0.08,0.427l-0.11,0.429l-0.056,0.216l-0.014,0.054l-0.007,0.027
		c0,0-0.038,0.106-0.025,0.072l-0.029,0.091l-0.118,0.364c-0.021,0.063-0.036,0.118-0.063,0.187l-0.088,0.22l-0.182,0.443
		c-0.129,0.285-0.265,0.547-0.404,0.824l-0.236,0.402l-0.12,0.202l-0.03,0.051l-0.015,0.025l-0.047,0.066l-0.056,0.082l-0.224,0.331
		c-0.039,0.057-0.07,0.107-0.117,0.17l-0.152,0.197c-0.204,0.265-0.414,0.531-0.626,0.757l-0.323,0.353l-0.352,0.336l-0.177,0.168
		l-0.045,0.042l-0.022,0.021c0.034-0.026-0.072,0.06-0.068,0.056l-0.079,0.066l-0.318,0.266l-0.161,0.134l-0.208,0.153l-0.421,0.305
		c-0.282,0.197-0.555,0.356-0.837,0.536l-0.44,0.239l-0.223,0.117l-0.112,0.058l-0.028,0.014l-0.083,0.037l-0.049,0.022
		l-0.389,0.172c-0.13,0.057-0.25,0.114-0.431,0.178c-0.329,0.118-0.68,0.26-0.995,0.343c-0.323,0.095-0.646,0.193-0.983,0.258
		l-0.503,0.108l-0.499,0.076c-0.149,0.021-0.275,0.044-0.444,0.06l-0.543,0.042c-0.372,0.035-0.707,0.03-1.051,0.032
		c-0.342,0.011-0.69-0.026-1.037-0.045l-0.13-0.009l-0.065-0.004l-0.033-0.002l-0.095-0.012l-0.219-0.029l-0.438-0.057
		c-0.131-0.012-0.334-0.056-0.508-0.088l-0.541-0.108c-0.35-0.081-0.671-0.18-1.008-0.272c-0.331-0.107-0.66-0.229-0.989-0.346
		l-0.887-0.383c-0.327-0.164-0.661-0.33-0.98-0.501c-0.297-0.178-0.597-0.351-0.89-0.536l-0.428-0.301l-0.213-0.152l-0.106-0.076
		l-0.027-0.019l-0.079-0.061l-0.043-0.035c-0.234-0.194-0.452-0.364-0.699-0.577c-0.268-0.246-0.543-0.494-0.798-0.743l-0.704-0.751
		l-0.329-0.399l-0.164-0.2l-0.082-0.1l-0.041-0.05l-0.02-0.025l-0.06-0.079l-0.507-0.726c-0.185-0.29-0.377-0.606-0.56-0.909
		c-0.174-0.303-0.318-0.599-0.476-0.898c-0.155-0.298-0.278-0.615-0.416-0.922l-0.1-0.231l-0.098-0.267l-0.146-0.411
		c-0.093-0.248-0.192-0.611-0.285-0.941l-0.136-0.5l-0.101-0.481c-0.067-0.32-0.135-0.637-0.172-0.963l-0.066-0.483l-0.039-0.303
		l-0.014-0.212c-0.017-0.289-0.041-0.55-0.048-0.859c0.001-0.334,0.001-0.666,0.001-0.997c0.034-0.638,0.069-1.251,0.169-1.865
		l0.065-0.457l0.018-0.113l0.011-0.05l0.021-0.1l0.043-0.199l0.089-0.396c0.029-0.131,0.056-0.259,0.104-0.418
		c0.086-0.301,0.171-0.6,0.256-0.898c0.092-0.288,0.197-0.557,0.295-0.833c0.093-0.275,0.21-0.541,0.328-0.805l0.176-0.393
		l0.089-0.195c0.046-0.103,0.019-0.041,0.033-0.069l0.011-0.021l0.023-0.042l0.046-0.084c0.122-0.225,0.244-0.448,0.364-0.67
		c0.126-0.226,0.293-0.486,0.436-0.722c0.291-0.497,0.615-0.904,0.924-1.333c0.169-0.202,0.336-0.402,0.502-0.6l0.249-0.294
		l0.059-0.069l0.031-0.031l0.061-0.063l0.122-0.125c0.163-0.166,0.323-0.331,0.483-0.495c0.167-0.167,0.368-0.341,0.548-0.506
		c0.736-0.67,1.463-1.193,2.199-1.67l0.135-0.089c0.059-0.041,0.026-0.017,0.043-0.028l0.017-0.009l0.033-0.019l0.066-0.037
		l0.262-0.147c0.173-0.097,0.344-0.194,0.513-0.288c0.359-0.188,0.734-0.365,1.083-0.531c1.396-0.621,2.697-0.952,3.726-1.139
		c0.538-0.088,1.01-0.17,1.425-0.187c0.413-0.031,0.759-0.065,1.045-0.058c0.565,0.003,0.866,0.004,0.866,0.004
		s-0.288,0.083-0.828,0.24c-0.27,0.065-0.594,0.187-0.973,0.32c-0.383,0.124-0.801,0.31-1.266,0.5
		c-0.957,0.424-2.043,0.97-3.182,1.766c-0.271,0.202-0.551,0.41-0.84,0.625c-0.149,0.123-0.3,0.248-0.454,0.374l-0.232,0.191
		l-0.058,0.048L42.214,28.5l-0.015,0.012c0.007-0.004-0.037,0.027,0.012-0.007l-0.103,0.099c-0.552,0.516-1.143,1.091-1.635,1.716
		c-1.142,1.364-1.941,2.714-2.661,4.574c-0.273,0.787-0.577,1.779-0.698,2.629c-0.023,0.1-0.039,0.238-0.056,0.373L37.007,38.3
		l-0.028,0.202l-0.014,0.101l-0.007,0.051c-0.003,0.021,0.015-0.093,0.007-0.034l-0.001,0.022l-0.022,0.358
		c-0.044,0.473-0.03,0.968-0.023,1.444c0.016,0.227,0.032,0.454,0.048,0.682c0.033,0.275,0.065,0.55,0.098,0.827l0.025,0.211
		c-0.012-0.117-0.001-0.02-0.002-0.04l0.004,0.022l0.009,0.045l0.018,0.09l0.07,0.36c0.038,0.241,0.105,0.479,0.17,0.719
		l0.094,0.359l0.111,0.329c0.076,0.221,0.129,0.418,0.255,0.708l0.159,0.406l0.04,0.102l0.02,0.051l0.01,0.025
		c-0.007-0.019,0.031,0.079-0.014-0.037l0.08,0.167c0.111,0.221,0.203,0.449,0.327,0.666c0.124,0.213,0.244,0.443,0.369,0.645
		l0.381,0.585l0.528,0.711c-0.076-0.102-0.012-0.018-0.025-0.036l0.015,0.018l0.03,0.035l0.06,0.071l0.119,0.142l0.238,0.285
		l0.519,0.541l0.508,0.468c0.204,0.173,0.456,0.368,0.682,0.551l0.559,0.388l0.634,0.392l0.602,0.323l0.744,0.333l0.687,0.248
		c0.234,0.064,0.479,0.143,0.703,0.199l0.326,0.077c0.115,0.026,0.198,0.057,0.36,0.078l0.436,0.071l0.218,0.036
		c-0.021-0.003,0.085,0.012-0.04-0.005l0.022,0.002l0.045,0.004l0.09,0.008c0.24,0.018,0.475,0.058,0.719,0.055
		c0.242,0.006,0.492,0.019,0.701,0.004l0.329-0.009c0.121-0.006,0.282-0.028,0.422-0.039l0.217-0.021l0.108-0.01l0.054-0.005
		l0.027-0.003c-0.122,0.017-0.021,0.003-0.043,0.005l0.348-0.057c0.233-0.028,0.464-0.089,0.695-0.142
		c0.244-0.048,0.427-0.121,0.64-0.176c0.091-0.02,0.233-0.077,0.366-0.127l0.398-0.151c0.196-0.086,0.39-0.172,0.585-0.258
		c0.2-0.11,0.421-0.216,0.605-0.325l0.27-0.163l0.136-0.08l0.168-0.12l0.336-0.241l0.084-0.06c0.018-0.013-0.075,0.061-0.028,0.023
		l0.016-0.013l0.032-0.027l0.129-0.106l0.26-0.21l0.247-0.231c0.177-0.153,0.313-0.301,0.456-0.446l0.108-0.109
		c0.038-0.041,0.084-0.1,0.125-0.149l0.254-0.308l0.063-0.077c-0.009,0.014,0.044-0.058-0.017,0.026l0.012-0.016l0.024-0.033
		l0.095-0.131l0.192-0.261c0.113-0.183,0.238-0.373,0.341-0.551l0.145-0.26l0.075-0.129c0.026-0.048,0.053-0.114,0.08-0.17
		l0.159-0.348l0.04-0.087c0.019-0.05-0.014,0.043-0.009,0.027l0.007-0.018l0.014-0.036l0.056-0.145l0.114-0.29l0.093-0.301
		c0.07-0.206,0.11-0.389,0.156-0.574l0.036-0.139l0.031-0.176l0.061-0.358l0.015-0.089c0.005-0.048-0.002,0.04-0.001,0.025
		l0.002-0.019l0.004-0.037l0.016-0.148l0.034-0.296c0.007-0.198,0.019-0.405,0.02-0.595l-0.006-0.275c0-0.09,0-0.18-0.016-0.302
		l-0.034-0.339l-0.008-0.084l-0.002-0.021c0.003,0.011-0.009-0.055,0.005,0.02l-0.006-0.035l-0.022-0.14
		c-0.026-0.186-0.055-0.373-0.103-0.556l-0.063-0.275l-0.074-0.251c-0.036-0.155-0.119-0.361-0.194-0.557l-0.056-0.146l-0.007-0.018
		c0.029,0.056,0.004,0.007,0.009,0.016l-0.014-0.03l-0.027-0.061l-0.106-0.242c-0.068-0.162-0.163-0.314-0.241-0.47
		c-0.083-0.152-0.171-0.282-0.254-0.425c-0.1-0.148-0.223-0.308-0.33-0.458c-0.098-0.121-0.194-0.24-0.289-0.357
		c-0.112-0.118-0.222-0.235-0.331-0.35c-0.112-0.104-0.221-0.207-0.329-0.308c-0.067-0.053-0.133-0.106-0.198-0.158l-0.098-0.078
		l-0.048-0.039l-0.024-0.019l-0.012-0.01c-0.008-0.006,0.028,0.016,0.007,0.003c-0.12-0.086-0.238-0.17-0.353-0.252
		c-0.124-0.075-0.245-0.149-0.364-0.221c-0.119-0.068-0.236-0.125-0.351-0.187c-0.111-0.062-0.257-0.114-0.378-0.171l-0.094-0.041
		c-0.009-0.004-0.047-0.019-0.031-0.015l-0.043-0.014c-0.057-0.018-0.114-0.037-0.17-0.055c-0.227-0.069-0.435-0.154-0.657-0.205
		c-0.23-0.042-0.446-0.081-0.646-0.117c-0.05-0.009-0.099-0.018-0.148-0.027c-0.018-0.01-0.083-0.006-0.121-0.009
		c-0.089-0.004-0.175-0.007-0.257-0.01c-0.168-0.007-0.32-0.013-0.457-0.018C50.375,36.342,50.076,36.368,50.076,36.368z"/>
</g>
</svg>
