<?xml version="1.0" encoding="utf-8"?>
<!-- Generator: Adobe Illustrator 17.0.0, SVG Export Plug-In . SVG Version: 6.00 Build 0)  -->
<!DOCTYPE svg PUBLIC "-//W3C//DTD SVG 1.1//EN" "http://www.w3.org/Graphics/SVG/1.1/DTD/svg11.dtd">
<svg version="1.1" id="Calque_1" xmlns="http://www.w3.org/2000/svg" xmlns:xlink="http://www.w3.org/1999/xlink" x="0px" y="0px"
	 width="72px" height="47px" viewBox="0 0 72 47" enable-background="new 0 0 72 47" xml:space="preserve">
<g>
	<path fill="#354960" d="M72,43.105C72,45.256,70.256,47,68.105,47H3.895C1.744,47,0,45.256,0,43.105V3.895C0,1.744,1.744,0,3.895,0
		h64.211C70.256,0,72,1.744,72,3.895V43.105z"/>
	<circle fill="#C74F5C" cx="27.621" cy="23.956" r="14.97"/>
	<circle fill="#DBB92F" cx="42.226" cy="23.956" r="14.97"/>
	<path id="path4157" fill="#FFFFFF" d="M28.259,27.915l0.218-1.482c-0.119,0-0.295,0.051-0.449,0.051
		c-0.607,0-0.674-0.323-0.635-0.561l0.49-3.024h0.923l0.223-1.64h-0.87l0.177-1.02h-1.744c-0.038,0.038-1.029,5.734-1.029,6.428
		c0,1.027,0.577,1.484,1.389,1.477C27.589,28.138,28.085,27.962,28.259,27.915z"/>
	<path id="path4155" fill="#FFFFFF" d="M28.812,25.089c0,2.464,1.627,3.05,3.012,3.05c1.279,0,1.842-0.286,1.842-0.286l0.307-1.682
		c0,0-0.973,0.429-1.852,0.429c-1.872,0-1.545-1.396-1.545-1.396h3.544c0,0,0.229-1.13,0.229-1.59c0-1.149-0.572-2.549-2.486-2.549
		C30.11,21.065,28.812,22.954,28.812,25.089z M31.87,22.626c0.984,0,0.803,1.106,0.803,1.195h-1.936
		C30.737,23.707,30.919,22.626,31.87,22.626z"/>
	<path id="path4151" fill="#FFFFFF" d="M42.912,27.914l0.312-1.901c0,0-0.856,0.429-1.443,0.429c-1.237,0-1.733-0.945-1.733-1.959
		c0-2.059,1.064-3.191,2.249-3.191c0.889,0,1.602,0.499,1.602,0.499l0.285-1.847c0,0-1.057-0.428-1.964-0.428
		c-2.013,0-3.971,1.746-3.971,5.026c0,2.175,1.057,3.611,3.138,3.611C41.975,28.153,42.912,27.914,42.912,27.914z"/>
	<path id="path4149" fill="#FFFFFF" d="M18.669,21.092c-1.196,0-2.112,0.384-2.112,0.384l-0.253,1.502c0,0,0.757-0.307,1.9-0.307
		c0.649,0,1.124,0.073,1.124,0.601c0,0.321-0.058,0.439-0.058,0.439s-0.512-0.043-0.749-0.043c-1.508,0-3.092,0.644-3.092,2.584
		c0,1.529,1.039,1.88,1.684,1.88c1.23,0,1.761-0.798,1.789-0.801l-0.057,0.666h1.535l0.685-4.802
		C21.063,21.157,19.286,21.092,18.669,21.092z M19.042,25.002c0.033,0.293-0.184,1.668-1.234,1.668
		c-0.542,0-0.682-0.414-0.682-0.658c0-0.477,0.259-1.05,1.537-1.05C18.96,24.962,18.992,24.994,19.042,25.002z"/>
	<path id="path4145" fill="#FFFFFF" d="M22.695,28.096c0.393,0,2.638,0.1,2.638-2.217c0-2.166-2.079-1.738-2.079-2.608
		c0-0.433,0.339-0.57,0.958-0.57c0.246,0,1.192,0.078,1.192,0.078l0.22-1.54c0,0-0.612-0.137-1.609-0.137
		c-1.29,0-2.599,0.515-2.599,2.277c0,1.996,2.183,1.796,2.183,2.637c0,0.561-0.61,0.607-1.08,0.607
		c-0.813,0-1.546-0.279-1.549-0.266l-0.233,1.524C20.781,27.895,21.232,28.096,22.695,28.096z"/>
	<path id="path4139" fill="#FFFFFF" d="M57.357,19.71l-0.376,2.334c0,0-0.656-0.907-1.684-0.907c-1.598,0-2.93,1.926-2.93,4.14
		c0,1.429,0.71,2.829,2.162,2.829c1.045,0,1.624-0.728,1.624-0.728L56.076,28h1.696l1.332-8.292L57.357,19.71z M56.547,24.261
		c0,0.921-0.456,2.151-1.401,2.151c-0.628,0-0.922-0.527-0.922-1.354c0-1.352,0.607-2.244,1.373-2.244
		C56.225,22.814,56.547,23.246,56.547,24.261z"/>
	<path id="path4133" fill="#FFFFFF" d="M9.227,28.007l1.062-6.261l0.156,6.261h1.201l2.241-6.261l-0.993,6.261h1.785l1.375-8.304
		h-2.761l-1.719,5.095l-0.089-5.095H8.94l-1.395,8.304C7.546,28.007,9.227,28.007,9.227,28.007z"/>
	<path id="path4131" fill="#FFFFFF" d="M36.094,28.018c0.508-2.886,0.602-5.23,1.813-4.801c0.212-1.117,0.417-1.549,0.648-2.022
		c0,0-0.109-0.023-0.336-0.023c-0.781,0-1.359,1.067-1.359,1.067l0.155-0.98h-1.624l-1.088,6.759
		C34.303,28.018,36.094,28.018,36.094,28.018z"/>
	<path id="path4149_1_" fill="#FFFFFF" d="M46.936,21.092c-1.196,0-2.112,0.384-2.112,0.384l-0.253,1.502c0,0,0.757-0.307,1.9-0.307
		c0.649,0,1.124,0.073,1.124,0.601c0,0.321-0.058,0.439-0.058,0.439s-0.512-0.043-0.75-0.043c-1.508,0-3.092,0.644-3.092,2.584
		c0,1.529,1.039,1.88,1.683,1.88c1.23,0,1.761-0.798,1.789-0.801l-0.057,0.666h1.535l0.685-4.802
		C49.331,21.157,47.553,21.092,46.936,21.092z M47.31,25.002c0.033,0.293-0.184,1.668-1.234,1.668c-0.542,0-0.682-0.414-0.682-0.658
		c0-0.477,0.259-1.05,1.537-1.05C47.228,24.962,47.259,24.994,47.31,25.002z"/>
	<path id="path4131_1_" fill="#FFFFFF" d="M50.734,28.018c0.508-2.886,0.602-5.23,1.813-4.801c0.212-1.117,0.417-1.549,0.648-2.022
		c0,0-0.109-0.023-0.336-0.023c-0.781,0-1.359,1.067-1.359,1.067l0.155-0.98h-1.624l-1.088,6.759
		C48.943,28.018,50.734,28.018,50.734,28.018z"/>
	<path id="text9407" fill="#FFFFFF" d="M59.067,26.975c0.089,0,0.176,0.023,0.26,0.069c0.085,0.045,0.151,0.111,0.198,0.196
		c0.048,0.085,0.071,0.173,0.071,0.265c0,0.091-0.023,0.179-0.07,0.263c-0.046,0.084-0.112,0.15-0.196,0.196
		s-0.172,0.069-0.263,0.069c-0.092,0-0.18-0.023-0.264-0.069c-0.084-0.047-0.149-0.112-0.196-0.196s-0.07-0.172-0.07-0.263
		c0-0.092,0.023-0.18,0.071-0.265s0.114-0.151,0.198-0.196C58.891,26.998,58.978,26.975,59.067,26.975 M59.067,27.063
		c-0.074,0-0.147,0.019-0.217,0.058c-0.071,0.038-0.126,0.092-0.165,0.164c-0.04,0.07-0.06,0.144-0.06,0.221s0.019,0.15,0.058,0.22
		c0.039,0.07,0.094,0.124,0.165,0.164c0.07,0.038,0.143,0.058,0.22,0.058c0.076,0,0.15-0.019,0.22-0.058
		c0.07-0.039,0.125-0.094,0.163-0.164c0.039-0.07,0.058-0.143,0.058-0.22s-0.02-0.15-0.059-0.221
		c-0.039-0.071-0.094-0.126-0.165-0.164C59.213,27.082,59.141,27.063,59.067,27.063 M58.835,27.798v-0.57h0.196
		c0.067,0,0.116,0.005,0.145,0.016c0.03,0.01,0.053,0.028,0.072,0.055c0.018,0.026,0.027,0.054,0.027,0.083
		c0,0.042-0.015,0.078-0.045,0.109c-0.029,0.031-0.069,0.048-0.118,0.052c0.02,0.009,0.036,0.019,0.048,0.03
		c0.023,0.023,0.051,0.06,0.084,0.113l0.07,0.112h-0.113l-0.05-0.09c-0.04-0.071-0.072-0.115-0.096-0.133
		c-0.017-0.013-0.041-0.02-0.074-0.02h-0.054v0.242L58.835,27.798 M58.927,27.477h0.112c0.053,0,0.089-0.008,0.109-0.024
		c0.019-0.016,0.03-0.037,0.03-0.063c0-0.017-0.005-0.032-0.014-0.045c-0.009-0.014-0.023-0.023-0.039-0.03
		c-0.017-0.006-0.047-0.01-0.092-0.01h-0.104L58.927,27.477"/>
</g>
</svg>
