<?xml version="1.0" encoding="utf-8"?>
<!-- Generator: Adobe Illustrator 17.0.0, SVG Export Plug-In . SVG Version: 6.00 Build 0)  -->
<!DOCTYPE svg PUBLIC "-//W3C//DTD SVG 1.1//EN" "http://www.w3.org/Graphics/SVG/1.1/DTD/svg11.dtd">
<svg version="1.1" id="Calque_1" xmlns="http://www.w3.org/2000/svg" xmlns:xlink="http://www.w3.org/1999/xlink" x="0px" y="0px"
	 width="72px" height="47px" viewBox="0 0 72 47" enable-background="new 0 0 72 47" xml:space="preserve">
<g>
	<g>
		<defs>
			<path id="SVGID_1_" d="M72,43.105C72,45.256,70.256,47,68.105,47H3.895C1.744,47,0,45.256,0,43.105V3.895
				C0,1.744,1.744,0,3.895,0h64.211C70.256,0,72,1.744,72,3.895V43.105z"/>
		</defs>
		<clipPath id="SVGID_2_">
			<use xlink:href="#SVGID_1_"  overflow="visible"/>
		</clipPath>
		<rect clip-path="url(#SVGID_2_)" fill="#003087" width="35" height="48"/>
		<rect x="35" clip-path="url(#SVGID_2_)" fill="#009CDE" width="37" height="48"/>
	</g>
	<path fill="#FFFFFF" d="M45.467,20.228c-0.223,1.465-1.342,1.465-2.424,1.465h-0.616l0.432-2.735
		c0.026-0.165,0.168-0.287,0.336-0.287h0.283c0.737,0,1.432,0,1.791,0.419C45.483,19.341,45.548,19.714,45.467,20.228
		 M44.996,16.405h-4.081c-0.279,0-0.517,0.203-0.56,0.479l-1.65,10.466c-0.033,0.206,0.127,0.393,0.336,0.393h2.094
		c0.195,0,0.362-0.142,0.392-0.335l0.468-2.967c0.043-0.276,0.281-0.479,0.56-0.479h1.291c2.689,0,4.24-1.301,4.646-3.88
		c0.183-1.127,0.007-2.013-0.52-2.634C47.39,16.766,46.361,16.405,44.996,16.405"/>
	<path fill="#FFFFFF" d="M16.355,20.228c-0.223,1.465-1.342,1.465-2.424,1.465h-0.616l0.432-2.735
		c0.026-0.165,0.168-0.287,0.336-0.287h0.283c0.737,0,1.432,0,1.791,0.419C16.372,19.341,16.436,19.714,16.355,20.228
		 M15.884,16.405h-4.081c-0.279,0-0.517,0.203-0.56,0.479L9.592,27.35c-0.033,0.206,0.127,0.393,0.336,0.393h1.949
		c0.279,0,0.516-0.203,0.56-0.478l0.446-2.824c0.043-0.276,0.281-0.479,0.56-0.479h1.291c2.689,0,4.24-1.301,4.646-3.88
		c0.183-1.127,0.007-2.013-0.52-2.634C18.279,16.766,17.25,16.405,15.884,16.405"/>
	<path fill="#FFFFFF" d="M25.36,23.985c-0.189,1.117-1.075,1.867-2.206,1.867c-0.567,0-1.021-0.183-1.312-0.528
		c-0.289-0.342-0.398-0.83-0.306-1.372c0.176-1.107,1.077-1.881,2.19-1.881c0.555,0,1.006,0.184,1.303,0.533
		C25.328,22.954,25.446,23.445,25.36,23.985 M28.084,20.181h-1.954c-0.167,0-0.31,0.122-0.336,0.287l-0.086,0.546l-0.136-0.198
		c-0.424-0.614-1.367-0.82-2.309-0.82c-2.159,0-4.004,1.637-4.362,3.932c-0.187,1.145,0.078,2.239,0.728,3.003
		c0.596,0.701,1.447,0.994,2.461,0.994c1.741,0,2.706-1.118,2.706-1.118l-0.087,0.543c-0.033,0.206,0.127,0.393,0.336,0.393h1.76
		c0.279,0,0.517-0.203,0.56-0.478l1.057-6.691C28.453,20.368,28.293,20.181,28.084,20.181"/>
	<path fill="#FFFFFF" d="M54.471,23.985c-0.189,1.117-1.075,1.867-2.206,1.867c-0.567,0-1.021-0.183-1.312-0.528
		c-0.289-0.342-0.398-0.83-0.306-1.372c0.176-1.107,1.077-1.881,2.19-1.881c0.555,0,1.006,0.184,1.303,0.533
		C54.439,22.954,54.557,23.445,54.471,23.985 M57.195,20.181h-1.954c-0.167,0-0.31,0.122-0.336,0.287l-0.086,0.546l-0.137-0.198
		c-0.423-0.614-1.367-0.82-2.309-0.82c-2.159,0-4.004,1.637-4.362,3.932c-0.187,1.145,0.078,2.239,0.728,3.003
		c0.596,0.701,1.447,0.994,2.461,0.994c1.741,0,2.706-1.118,2.706-1.118l-0.087,0.543c-0.033,0.206,0.127,0.393,0.336,0.393h1.76
		c0.279,0,0.517-0.203,0.56-0.478l1.057-6.691C57.564,20.368,57.404,20.181,57.195,20.181"/>
	<path fill="#FFFFFF" d="M38.493,20.181h-1.964c-0.188,0-0.364,0.093-0.469,0.249l-2.71,3.991l-1.148-3.835
		c-0.072-0.24-0.293-0.405-0.544-0.405h-1.931c-0.233,0-0.397,0.229-0.322,0.45l2.163,6.35l-2.034,2.871
		c-0.159,0.225,0.002,0.537,0.278,0.537h1.962c0.186,0,0.36-0.091,0.466-0.244l6.533-9.429
		C38.929,20.489,38.768,20.181,38.493,20.181"/>
	<path fill="#FFFFFF" d="M59.499,16.693L57.824,27.35c-0.033,0.206,0.127,0.393,0.336,0.393h1.685c0.279,0,0.517-0.203,0.56-0.479
		l1.652-10.466c0.033-0.206-0.127-0.393-0.336-0.393h-1.885C59.667,16.406,59.524,16.527,59.499,16.693"/>
</g>
</svg>
