<?xml version="1.0" encoding="utf-8"?>
<!-- Generator: Adobe Illustrator 17.0.0, SVG Export Plug-In . SVG Version: 6.00 Build 0)  -->
<!DOCTYPE svg PUBLIC "-//W3C//DTD SVG 1.1//EN" "http://www.w3.org/Graphics/SVG/1.1/DTD/svg11.dtd">
<svg version="1.1" id="Calque_1" xmlns="http://www.w3.org/2000/svg" xmlns:xlink="http://www.w3.org/1999/xlink" x="0px" y="0px"
	 width="25px" height="25px" viewBox="11.5 11.5 25 25" enable-background="new 11.5 11.5 25 25" xml:space="preserve">
<g>
	<g>
		
			<circle fill="none" stroke="#FFFFFF" stroke-linecap="round" stroke-linejoin="round" stroke-miterlimit="10" cx="45.772" cy="22.797" r="4.324"/>
		
			<line fill="none" stroke="#FFFFFF" stroke-linecap="round" stroke-linejoin="round" stroke-miterlimit="10" x1="45.772" y1="27.337" x2="45.772" y2="31.878"/>
		
			<line fill="none" stroke="#FFFFFF" stroke-linecap="round" stroke-linejoin="round" stroke-miterlimit="10" x1="43.991" y1="29.607" x2="47.553" y2="29.607"/>
	</g>
	<g>
		<path fill="none" stroke="#FFFFFF" stroke-linecap="round" stroke-linejoin="round" stroke-miterlimit="10" d="M51.44,26.907
			c0.627-0.204,1.216-0.555,1.714-1.053c1.688-1.688,1.688-4.427,0-6.115c-0.584-0.584-1.294-0.967-2.043-1.146"/>
		
			<line fill="none" stroke="#FFFFFF" stroke-linecap="round" stroke-linejoin="round" stroke-miterlimit="10" x1="56.078" y1="16.815" x2="53.204" y2="19.689"/>
		<polyline fill="none" stroke="#FFFFFF" stroke-linecap="round" stroke-linejoin="round" stroke-miterlimit="10" points="
			56.721,20.016 56.303,16.541 52.827,16.122 		"/>
	</g>
</g>
<polyline fill="none" stroke="#FFFFFF" stroke-linecap="round" stroke-linejoin="round" stroke-miterlimit="10" points="
	-6.521,24.526 -6.521,31.224 4.563,31.224 4.563,24.526 "/>
<polyline fill="none" stroke="#FFFFFF" stroke-linecap="round" stroke-linejoin="round" stroke-miterlimit="10" points="
	6.427,23.574 -0.979,16.776 -8.386,23.574 "/>
<g>
	
		<rect x="-3.479" y="42.02" fill="none" stroke="#FFFFFF" stroke-linecap="round" stroke-linejoin="round" stroke-miterlimit="10" width="8.479" height="15.287"/>
	
		<rect x="5" y="45.527" fill="none" stroke="#FFFFFF" stroke-linecap="round" stroke-linejoin="round" stroke-miterlimit="10" width="4.24" height="11.78"/>
	
		<line fill="none" stroke="#FFFFFF" stroke-linecap="round" stroke-linejoin="round" stroke-miterlimit="10" x1="-1.542" y1="44.277" x2="-1.542" y2="44.798"/>
	
		<line fill="none" stroke="#FFFFFF" stroke-linecap="round" stroke-linejoin="round" stroke-miterlimit="10" x1="0.76" y1="44.277" x2="0.76" y2="44.798"/>
	
		<line fill="none" stroke="#FFFFFF" stroke-linecap="round" stroke-linejoin="round" stroke-miterlimit="10" x1="3.062" y1="44.277" x2="3.062" y2="44.798"/>
	
		<line fill="none" stroke="#FFFFFF" stroke-linecap="round" stroke-linejoin="round" stroke-miterlimit="10" x1="-1.542" y1="46.527" x2="-1.542" y2="47.048"/>
	
		<line fill="none" stroke="#FFFFFF" stroke-linecap="round" stroke-linejoin="round" stroke-miterlimit="10" x1="0.76" y1="46.527" x2="0.76" y2="47.048"/>
	
		<line fill="none" stroke="#FFFFFF" stroke-linecap="round" stroke-linejoin="round" stroke-miterlimit="10" x1="3.062" y1="46.527" x2="3.062" y2="47.048"/>
	
		<line fill="none" stroke="#FFFFFF" stroke-linecap="round" stroke-linejoin="round" stroke-miterlimit="10" x1="-1.542" y1="48.777" x2="-1.542" y2="49.298"/>
	
		<line fill="none" stroke="#FFFFFF" stroke-linecap="round" stroke-linejoin="round" stroke-miterlimit="10" x1="0.76" y1="48.777" x2="0.76" y2="49.298"/>
	
		<line fill="none" stroke="#FFFFFF" stroke-linecap="round" stroke-linejoin="round" stroke-miterlimit="10" x1="3.062" y1="48.777" x2="3.062" y2="49.298"/>
	
		<line fill="none" stroke="#FFFFFF" stroke-linecap="round" stroke-linejoin="round" stroke-miterlimit="10" x1="-1.542" y1="51.027" x2="-1.542" y2="51.548"/>
	
		<line fill="none" stroke="#FFFFFF" stroke-linecap="round" stroke-linejoin="round" stroke-miterlimit="10" x1="0.76" y1="51.027" x2="0.76" y2="51.548"/>
	
		<line fill="none" stroke="#FFFFFF" stroke-linecap="round" stroke-linejoin="round" stroke-miterlimit="10" x1="3.062" y1="51.027" x2="3.062" y2="51.548"/>
	
		<line fill="none" stroke="#FFFFFF" stroke-linecap="round" stroke-linejoin="round" stroke-miterlimit="10" x1="-1.542" y1="53.277" x2="-1.542" y2="53.798"/>
	
		<line fill="none" stroke="#FFFFFF" stroke-linecap="round" stroke-linejoin="round" stroke-miterlimit="10" x1="0.76" y1="53.277" x2="0.76" y2="53.798"/>
	
		<line fill="none" stroke="#FFFFFF" stroke-linecap="round" stroke-linejoin="round" stroke-miterlimit="10" x1="3.062" y1="53.277" x2="3.062" y2="53.798"/>
	
		<line fill="none" stroke="#FFFFFF" stroke-linecap="round" stroke-linejoin="round" stroke-miterlimit="10" x1="7.12" y1="47.526" x2="7.12" y2="48.047"/>
	
		<line fill="none" stroke="#FFFFFF" stroke-linecap="round" stroke-linejoin="round" stroke-miterlimit="10" x1="7.12" y1="49.829" x2="7.12" y2="50.35"/>
	
		<line fill="none" stroke="#FFFFFF" stroke-linecap="round" stroke-linejoin="round" stroke-miterlimit="10" x1="7.12" y1="52.132" x2="7.12" y2="52.653"/>
</g>
<g>
	
		<line fill="none" stroke="#FFFFFF" stroke-linecap="round" stroke-linejoin="round" stroke-miterlimit="10" x1="37.375" y1="72.55" x2="37.375" y2="59.2"/>
	<polyline fill="none" stroke="#FFFFFF" stroke-linecap="round" stroke-linejoin="round" stroke-miterlimit="10" points="
		39.333,59.2 46.958,59.2 46.958,65.999 39.333,65.999 	"/>
</g>
<g>
	<path fill="none" stroke="#FFFFFF" stroke-linecap="round" stroke-linejoin="round" stroke-miterlimit="10" d="M23.493,19.981
		c0,0-0.029-1.043-1.267-2.28c-1.12-1.12-2.04-1.027-2.04-1.027l-2.149,2.149c0,0,0.566,4.305,3.701,7.44
		c3.126,3.126,7.44,3.701,7.44,3.701l2.149-2.149c0,0,0.122-0.891-1.145-2.158c-1.208-1.208-2.163-1.149-2.163-1.149l-1.349,1.349
		c0,0-1.497-0.436-2.793-1.733c-1.473-1.473-1.733-2.793-1.733-2.793L23.493,19.981z"/>
</g>
<g>
	<path fill="none" stroke="#FFFFFF" stroke-linecap="round" stroke-linejoin="round" stroke-miterlimit="10" d="M2.117,67.925
		v-4.677H0.185h-1.983c0,0-2.644,3.444-2.644,7.877c0,4.42,2.644,7.878,2.644,7.878h3.915v-4.677h-2.783v-6.401h1.449H2.117z"/>
</g>
</svg>
