<?xml version="1.0" encoding="utf-8"?>
<!-- Generator: Adobe Illustrator 17.0.0, SVG Export Plug-In . SVG Version: 6.00 Build 0)  -->
<!DOCTYPE svg PUBLIC "-//W3C//DTD SVG 1.1//EN" "http://www.w3.org/Graphics/SVG/1.1/DTD/svg11.dtd">
<svg version="1.1" id="Calque_1" xmlns="http://www.w3.org/2000/svg" xmlns:xlink="http://www.w3.org/1999/xlink" x="0px" y="0px"
	 width="30px" height="30px" viewBox="0 0 30 30" enable-background="new 0 0 30 30" xml:space="preserve">
<path fill="#1E1E1E" d="M22.789,9.699c-0.597,0.265-1.239,0.444-1.913,0.524c0.688-0.412,1.216-1.065,1.464-1.843
	c-0.644,0.382-1.356,0.659-2.115,0.808c-0.607-0.647-1.473-1.052-2.431-1.052c-1.839,0-3.33,1.491-3.33,3.33
	c0,0.261,0.029,0.515,0.086,0.759c-2.768-0.139-5.222-1.465-6.864-3.48C7.4,9.239,7.235,9.811,7.235,10.421
	c0,1.155,0.588,2.175,1.482,2.772c-0.546-0.017-1.059-0.167-1.508-0.417c0,0.014,0,0.028,0,0.042c0,1.614,1.148,2.96,2.672,3.266
	C9.6,16.16,9.306,16.201,9.002,16.201c-0.215,0-0.423-0.021-0.627-0.06c0.424,1.323,1.654,2.286,3.111,2.313
	c-1.14,0.893-2.576,1.426-4.136,1.426c-0.269,0-0.534-0.016-0.794-0.047c1.474,0.945,3.224,1.496,5.105,1.496
	c6.126,0,9.476-5.075,9.476-9.476c0-0.144-0.003-0.288-0.01-0.431C21.778,10.954,22.343,10.367,22.789,9.699L22.789,9.699z"/>
</svg>
