<?xml version="1.0" encoding="utf-8"?>
<!-- Generator: Adobe Illustrator 17.0.0, SVG Export Plug-In . SVG Version: 6.00 Build 0)  -->
<!DOCTYPE svg PUBLIC "-//W3C//DTD SVG 1.1//EN" "http://www.w3.org/Graphics/SVG/1.1/DTD/svg11.dtd">
<svg version="1.1" id="Calque_1" xmlns="http://www.w3.org/2000/svg" xmlns:xlink="http://www.w3.org/1999/xlink" x="0px" y="0px"
	 width="72px" height="47px" viewBox="0 0 72 47" enable-background="new 0 0 72 47" xml:space="preserve">
<g>
	<rect y="11" fill="#FFFFFF" width="72" height="26"/>
	<g>
		<g>
			<defs>
				<path id="SVGID_3_" d="M72,43.105C72,45.256,70.256,47,68.105,47H3.895C1.744,47,0,45.256,0,43.105V3.895
					C0,1.744,1.744,0,3.895,0h64.211C70.256,0,72,1.744,72,3.895V43.105z"/>
			</defs>
			<clipPath id="SVGID_2_">
				<use xlink:href="#SVGID_3_"  overflow="visible"/>
			</clipPath>
			<rect x="-12" y="35" clip-path="url(#SVGID_2_)" fill="#F5B700" width="86" height="13"/>
			<rect x="-12" clip-path="url(#SVGID_2_)" fill="#171D76" width="86" height="12"/>
		</g>
		<g id="g10" transform="matrix(1.25,0,0,-1.25,-74.19125,149.0417)">
			<g id="g4163" transform="matrix(0.6384875,0,0,0.6384875,24.348951,24.07854)">
				<g id="g12" transform="translate(143.448,67.609)">
					<path id="path14" fill="#2B3894" d="M-53.56,43.392l2.632,16.291h4.207l-2.631-16.291H-53.56"/>
				</g>
				<g id="g16" transform="translate(224.353,133.66)">
					<path id="path18" fill="#2B3894" d="M-115-6.768c-0.832,0.327-2.14,0.684-3.769,0.684c-4.159,0-7.087-2.211-7.111-5.377
						c-0.026-2.341,2.089-3.648,3.684-4.426c1.639-0.798,2.19-1.308,2.183-2.022c-0.011-1.091-1.308-1.591-2.518-1.591
						c-1.684,0-2.579,0.246-3.962,0.854l-0.541,0.259l-0.588-3.647c0.981-0.454,2.799-0.848,4.687-0.868
						c4.42,0,7.292,2.184,7.326,5.565c0.015,1.857-1.106,3.265-3.533,4.427c-1.47,0.755-2.372,1.256-2.362,2.02
						c0.001,0.677,0.762,1.402,2.41,1.402c1.376,0.022,2.372-0.295,3.148-0.626l0.378-0.186L-115-6.768"/>
				</g>
				<g id="g20" transform="translate(247.634,91.616)">
					<path id="path22" fill="#2B3894" d="M-132.679,25.161c0.349,0.936,1.676,4.554,1.676,4.554
						c-0.025-0.043,0.347,0.944,0.559,1.554l0.284-1.405c0,0,0.807-3.889,0.973-4.703
						C-129.842,25.161-131.858,25.161-132.679,25.161z M-127.49,35.66h-3.251c-1.008,0-1.763-0.288-2.205-1.35l-6.247-14.93h4.418
						c0,0,0.721,2.008,0.884,2.449c0.482,0,4.775-0.008,5.388-0.008c0.126-0.569,0.512-2.441,0.512-2.441h3.904L-127.49,35.66"/>
				</g>
				<g id="g24" transform="translate(128.78,135.265)">
					<path id="path26" fill="#2B3894" d="M-42.421-7.986l-4.117-11.107l-0.441,2.258c-0.767,2.601-3.156,5.421-5.827,6.834
						l3.767-14.248l4.452,0.003l6.625,16.261H-42.421"/>
				</g>
				<g id="g28" transform="translate(95.781,135.311)">
					<path id="path30" fill="#F79510" d="M-17.362-8.021h-6.784l-0.056-0.338c5.279-1.35,8.771-4.607,10.221-8.523l-1.474,7.486
						C-15.709-8.363-16.448-8.057-17.362-8.021"/>
				</g>
				<g id="g32" transform="translate(288.329,72.034)">
					<path id="path34" fill="#2B3894" d="M-163.583,40.032h0.199c0.141,0,0.17,0.082,0.17,0.148c0,0.114-0.074,0.14-0.188,0.14
						h-0.18V40.032z M-163.755,40.447h0.411c0.096,0,0.306-0.025,0.306-0.267c0-0.064-0.019-0.154-0.156-0.213v-0.005
						c0.119-0.02,0.125-0.132,0.132-0.223c0.009-0.144,0-0.17,0.038-0.22h-0.178c-0.034,0.034-0.026,0.061-0.034,0.212
						c0,0.086-0.011,0.173-0.204,0.173h-0.141v-0.385h-0.172C-163.755,39.519-163.755,40.447-163.755,40.447z M-163.416,39.188
						c0.422,0,0.754,0.35,0.754,0.788c0,0.438-0.332,0.788-0.754,0.788c-0.422,0-0.753-0.35-0.753-0.788
						C-164.169,39.538-163.838,39.188-163.416,39.188z M-163.416,40.905c0.52,0,0.929-0.416,0.929-0.929
						c0-0.512-0.409-0.929-0.929-0.929c-0.52,0-0.928,0.416-0.928,0.929C-164.345,40.488-163.936,40.905-163.416,40.905"/>
				</g>
			</g>
		</g>
	</g>
</g>
</svg>
