<?xml version="1.0" encoding="utf-8"?>
<!-- Generator: Adobe Illustrator 17.0.0, SVG Export Plug-In . SVG Version: 6.00 Build 0)  -->
<!DOCTYPE svg PUBLIC "-//W3C//DTD SVG 1.1//EN" "http://www.w3.org/Graphics/SVG/1.1/DTD/svg11.dtd">
<svg version="1.1" id="Calque_1" xmlns="http://www.w3.org/2000/svg" xmlns:xlink="http://www.w3.org/1999/xlink" x="0px" y="0px"
	 width="72px" height="47px" viewBox="0 0 72 47" enable-background="new 0 0 72 47" xml:space="preserve">
<g>
	<rect y="11" fill="#FFFFFF" width="72" height="26"/>
	<g>
		<g>
			<g>
				<g>
					<defs>
						<path id="SVGID_1_" d="M72,43.105C72,45.256,70.256,47,68.105,47H3.895C1.744,47,0,45.256,0,43.105V3.895
							C0,1.744,1.744,0,3.895,0h64.211C70.256,0,72,1.744,72,3.895V43.105z"/>
					</defs>
					<clipPath id="SVGID_2_">
						<use xlink:href="#SVGID_1_"  overflow="visible"/>
					</clipPath>
					<rect x="-12" y="35" clip-path="url(#SVGID_2_)" fill="#F5B700" width="86" height="13"/>
				</g>
			</g>
			<g>
				<g>
					<defs>
						<path id="SVGID_3_" d="M72,43.105C72,45.256,70.256,47,68.105,47H3.895C1.744,47,0,45.256,0,43.105V3.895
							C0,1.744,1.744,0,3.895,0h64.211C70.256,0,72,1.744,72,3.895V43.105z"/>
					</defs>
					<clipPath id="SVGID_4_">
						<use xlink:href="#SVGID_3_"  overflow="visible"/>
					</clipPath>
					<rect x="-12" clip-path="url(#SVGID_4_)" fill="#171D76" width="86" height="12"/>
				</g>
			</g>
		</g>
		<g id="g10" transform="matrix(1.25,0,0,-1.25,-74.19125,149.0417)">
			<g id="g4163" transform="matrix(0.6384875,0,0,0.6384875,24.348951,24.07854)">
				<g id="g12" transform="translate(143.448,67.609)">
					<path id="path14" fill="#2B3894" d="M-53.56,48.404l2.632,16.291h4.207l-2.631-16.291H-53.56"/>
				</g>
				<g id="g16" transform="translate(224.353,133.66)">
					<path id="path18" fill="#2B3894" d="M-115-1.756c-0.832,0.327-2.14,0.684-3.769,0.684c-4.159,0-7.087-2.211-7.111-5.377
						c-0.026-2.341,2.089-3.648,3.684-4.426c1.639-0.798,2.19-1.308,2.183-2.022c-0.011-1.091-1.308-1.591-2.518-1.591
						c-1.684,0-2.579,0.246-3.962,0.854l-0.541,0.259l-0.588-3.647c0.981-0.454,2.799-0.848,4.687-0.868
						c4.42,0,7.292,2.184,7.326,5.565c0.015,1.857-1.106,3.265-3.533,4.427c-1.47,0.755-2.372,1.256-2.362,2.02
						c0.001,0.677,0.762,1.402,2.41,1.402c1.376,0.022,2.372-0.295,3.148-0.626l0.378-0.186L-115-1.756"/>
				</g>
				<g id="g20" transform="translate(247.634,91.616)">
					<path id="path22" fill="#2B3894" d="M-132.679,30.173c0.349,0.936,1.676,4.554,1.676,4.554
						c-0.025-0.043,0.347,0.944,0.559,1.554l0.284-1.405c0,0,0.807-3.889,0.973-4.703
						C-129.842,30.173-131.858,30.173-132.679,30.173z M-127.49,40.672h-3.251c-1.008,0-1.763-0.288-2.205-1.35l-6.247-14.93h4.418
						c0,0,0.721,2.008,0.884,2.449c0.482,0,4.775-0.008,5.388-0.008c0.126-0.569,0.512-2.441,0.512-2.441h3.904L-127.49,40.672"/>
				</g>
				<g id="g24" transform="translate(128.78,135.265)">
					<path id="path26" fill="#2B3894" d="M-42.421-2.974l-4.117-11.107l-0.441,2.258c-0.767,2.601-3.156,5.421-5.827,6.834
						l3.767-14.248l4.452,0.003l6.625,16.261L-42.421-2.974"/>
				</g>
				<g id="g28" transform="translate(95.781,135.311)">
					<path id="path30" fill="#F79510" d="M-17.362-3.009h-6.784l-0.056-0.338c5.279-1.35,8.771-4.607,10.221-8.523l-1.474,7.486
						C-15.709-3.351-16.448-3.045-17.362-3.009"/>
				</g>
				<g id="g32" transform="translate(288.329,72.034)">
					<path id="path34" fill="#2B3894" d="M-163.583,45.044h0.199c0.141,0,0.17,0.082,0.17,0.148c0,0.114-0.074,0.14-0.188,0.14
						h-0.18v-0.288H-163.583z M-163.755,45.459h0.411c0.096,0,0.306-0.025,0.306-0.267c0-0.064-0.019-0.154-0.156-0.213v-0.005
						c0.119-0.02,0.125-0.132,0.132-0.223c0.009-0.144,0-0.17,0.038-0.22h-0.178c-0.034,0.034-0.026,0.061-0.034,0.212
						c0,0.086-0.011,0.173-0.204,0.173h-0.141v-0.385h-0.172C-163.755,44.531-163.755,45.459-163.755,45.459z M-163.416,44.2
						c0.422,0,0.754,0.35,0.754,0.788s-0.332,0.788-0.754,0.788s-0.753-0.35-0.753-0.788S-163.838,44.2-163.416,44.2z
						 M-163.416,45.917c0.52,0,0.929-0.416,0.929-0.929c0-0.512-0.409-0.929-0.929-0.929s-0.928,0.416-0.928,0.929
						C-164.345,45.5-163.936,45.917-163.416,45.917"/>
				</g>
			</g>
		</g>
		<g id="g4165" transform="translate(318.6445,362.2266)">
			<path id="path4167" fill="#2B3894" d="M-284.635-331.031h-1.896v1.766h2.123v0.531h-2.762v-4.897h2.652v0.531h-2.013v1.547h1.896
				V-331.031z"/>
		</g>
		<path id="path4169" fill="#2B3894" d="M35.214,28.332h0.639v5.159h-0.639V28.332z"/>
		<g id="g4171" transform="translate(333.0977,361.6953)">
			<path id="path4173" fill="#2B3894" d="M-293.757-330.304c0.007-0.399-0.167-1.032-0.886-1.032c-0.654,0-0.93,0.589-0.981,1.032
				H-293.757z M-295.632-329.845c0.015,0.865,0.559,1.222,1.206,1.222c0.459,0,0.741-0.08,0.975-0.182l0.117,0.457
				c-0.225,0.102-0.617,0.225-1.177,0.225c-1.083,0-1.729-0.719-1.729-1.781c0-1.061,0.624-1.889,1.649-1.889
				c1.155,0,1.454,1.003,1.454,1.649c0,0.13-0.007,0.225-0.022,0.297C-293.161-329.845-295.632-329.845-295.632-329.845z"/>
		</g>
		<g id="g4175" transform="translate(344.2041,356.3369)">
			<path id="path4177" fill="#2B3894" d="M-300.766-322.968c-0.167,0.08-0.538,0.204-1.01,0.204c-1.061,0-1.751-0.719-1.751-1.796
				c0-1.083,0.741-1.874,1.889-1.874c0.377,0,0.711,0.095,0.886,0.189l-0.145,0.487c-0.152-0.08-0.393-0.167-0.741-0.167
				c-0.806,0-1.242,0.603-1.242,1.33c0,0.814,0.524,1.315,1.22,1.315c0.364,0,0.603-0.087,0.784-0.167L-300.766-322.968z"/>
		</g>
		<g id="g4179" transform="translate(349.0664,367.8213)">
			<path id="path4181" fill="#2B3894" d="M-303.835-338.69v0.843h0.916v0.487h-0.916v1.896c0,0.436,0.124,0.683,0.479,0.683
				c0.175,0,0.277-0.015,0.371-0.044l0.03,0.487c-0.124,0.043-0.319,0.087-0.566,0.087c-0.299,0-0.538-0.102-0.691-0.269
				c-0.175-0.197-0.247-0.509-0.247-0.923v-1.918h-0.546v-0.487h0.546v-0.654L-303.835-338.69z"/>
		</g>
		<g id="g4183" transform="translate(353.9688,362.5615)">
			<path id="path4185" fill="#2B3894" d="M-306.929-331.489c0-0.414-0.007-0.771-0.03-1.098h0.559l0.03,0.698h0.021
				c0.16-0.472,0.552-0.771,0.981-0.771c0.065,0,0.117,0.007,0.175,0.015v0.603c-0.065-0.015-0.13-0.015-0.219-0.015
				c-0.45,0-0.771,0.334-0.858,0.814c-0.015,0.087-0.022,0.195-0.022,0.299v1.874h-0.639v-2.42H-306.929z"/>
		</g>
		<g id="g4187" transform="translate(361.7861,360.749)">
			<path id="path4189" fill="#2B3894" d="M-311.862-329.009c0,0.771,0.436,1.352,1.061,1.352c0.611,0,1.068-0.574,1.068-1.367
				c0-0.596-0.297-1.345-1.053-1.345C-311.535-330.368-311.862-329.67-311.862-329.009 M-309.08-329.044
				c0,1.3-0.908,1.868-1.751,1.868c-0.945,0-1.685-0.698-1.685-1.809c0-1.17,0.777-1.861,1.744-1.861
				C-309.763-330.847-309.08-330.114-309.08-329.044"/>
		</g>
		<g id="g4191" transform="translate(371.9873,362.9561)">
			<path id="path4193" fill="#2B3894" d="M-318.3-332.029c0-0.37-0.007-0.661-0.03-0.951h0.567l0.037,0.581h0.015
				c0.175-0.327,0.581-0.654,1.163-0.654c0.487,0,1.242,0.291,1.242,1.497v2.093h-0.639v-2.028c0-0.566-0.21-1.04-0.814-1.04
				c-0.414,0-0.741,0.299-0.858,0.654c-0.03,0.08-0.044,0.189-0.044,0.299v2.115h-0.639L-318.3-332.029L-318.3-332.029z"/>
		</g>
	</g>
</g>
</svg>
