<?xml version="1.0" encoding="utf-8"?>
<!-- Generator: Adobe Illustrator 17.0.0, SVG Export Plug-In . SVG Version: 6.00 Build 0)  -->
<!DOCTYPE svg PUBLIC "-//W3C//DTD SVG 1.1//EN" "http://www.w3.org/Graphics/SVG/1.1/DTD/svg11.dtd">
<svg version="1.1" id="Calque_1" xmlns="http://www.w3.org/2000/svg" xmlns:xlink="http://www.w3.org/1999/xlink" x="0px" y="0px"
	 width="30px" height="30px" viewBox="0 0 30 30" enable-background="new 0 0 30 30" xml:space="preserve">
<g>
	<path id="The_Sharpness" opacity="0.12" fill-rule="evenodd" clip-rule="evenodd" fill="#1E1E1E" d="M13.386,12.479l4.011,2.678
		l0.563-0.292L13.386,12.479z"/>
	<g id="Lozenge">
		<g>
			<path fill="#1E1E1E" d="M23.429,11.655c0,0-0.165-1.167-0.673-1.68C22.112,9.3,21.391,9.297,21.06,9.258
				c-2.369-0.171-5.922-0.171-5.922-0.171H15.13c0,0-3.553,0-5.922,0.171C8.877,9.297,8.156,9.3,7.512,9.975
				c-0.508,0.514-0.673,1.68-0.673,1.68s-0.169,1.37-0.169,2.74v1.284c0,1.37,0.169,2.74,0.169,2.74s0.165,1.167,0.673,1.68
				c0.644,0.674,1.49,0.653,1.867,0.724c1.354,0.13,5.755,0.17,5.755,0.17s3.557-0.005,5.926-0.177
				c0.331-0.039,1.052-0.043,1.696-0.717c0.508-0.514,0.673-1.68,0.673-1.68s0.169-1.37,0.169-2.74v-1.284
				C23.598,13.025,23.429,11.655,23.429,11.655z M13.386,17.235l-0.001-4.756l4.574,2.386L13.386,17.235z"/>
		</g>
	</g>
</g>
</svg>
